<svg width="23" height="24" viewBox="0 0 23 24" fill="none" xmlns="http://www.w3.org/2000/svg">
<path fill-rule="evenodd" clip-rule="evenodd" d="M22.0188 6.07179C19.8042 8.28637 14.6063 13.4832 13.3386 14.7468C13.0671 15.0179 12.7441 15.2318 12.3886 15.376C11.3719 15.7978 8.89168 16.7708 8.16252 16.8197C7.94757 16.8342 7.73203 16.8025 7.53034 16.7267C7.32866 16.651 7.1455 16.5331 6.99317 16.3807C6.84084 16.2284 6.72286 16.0452 6.64714 15.8436C6.57143 15.6419 6.53973 15.4263 6.55418 15.2114C6.60314 14.4822 7.57606 12.0041 7.99064 10.9916C8.13543 10.6322 8.35106 10.3062 8.62502 10.0332L17.3021 1.35512C17.7226 0.935426 18.2924 0.699707 18.8865 0.699707C19.4806 0.699707 20.0504 0.935426 20.4709 1.35512L22.0188 2.90304C22.4385 3.32351 22.6742 3.89333 22.6742 4.48742C22.6742 5.0815 22.4385 5.65132 22.0188 6.07179ZM8.11981 15.2541C8.83231 15.1645 10.9146 14.2958 11.7896 13.9322C11.9559 13.8668 12.107 13.7679 12.2334 13.6416L12.2344 13.6405C15.1294 10.7512 18.0225 7.85988 20.9136 4.96658C20.9766 4.90369 21.0265 4.829 21.0606 4.74678C21.0947 4.66456 21.1123 4.57643 21.1123 4.48742C21.1123 4.39841 21.0947 4.31027 21.0606 4.22805C21.0265 4.14583 20.9766 4.07114 20.9136 4.00825L19.3656 2.46033C19.3028 2.39734 19.2281 2.34737 19.1458 2.31327C19.0636 2.27917 18.9755 2.26162 18.8865 2.26162C18.7975 2.26162 18.7093 2.27917 18.6271 2.31327C18.5449 2.34737 18.4702 2.39734 18.4073 2.46033L9.72918 11.1385C9.60424 11.2627 9.50604 11.4113 9.44064 11.5749L9.43856 11.5791C9.07918 12.4562 8.20939 14.5405 8.11981 15.2541Z" fill="white"/>
<path fill-rule="evenodd" clip-rule="evenodd" d="M19.9532 7.03005C20.0257 7.10262 20.0833 7.18877 20.1226 7.28359C20.1618 7.3784 20.1821 7.48003 20.1821 7.58266C20.1821 7.68528 20.1618 7.78691 20.1226 7.88172C20.0833 7.97654 20.0257 8.06269 19.9532 8.13526C19.8806 8.20783 19.7944 8.26539 19.6996 8.30467C19.6048 8.34394 19.5032 8.36416 19.4006 8.36416C19.2979 8.36416 19.1963 8.34394 19.1015 8.30467C19.0067 8.26539 18.9205 8.20783 18.8479 8.13526L15.2365 4.5238C15.0899 4.37724 15.0076 4.17846 15.0076 3.9712C15.0076 3.76393 15.0899 3.56515 15.2365 3.41859C15.3831 3.27203 15.5818 3.1897 15.7891 3.1897C15.9964 3.1897 16.1951 3.27203 16.3417 3.41859L19.9532 7.03005ZM13.5771 13.4061C13.6496 13.4786 13.7071 13.5647 13.7464 13.6594C13.7856 13.7541 13.8058 13.8556 13.8058 13.9582C13.8058 14.0607 13.7856 14.1622 13.7464 14.257C13.7071 14.3517 13.6496 14.4378 13.5771 14.5103C13.5046 14.5828 13.4185 14.6403 13.3238 14.6795C13.2291 14.7187 13.1276 14.7389 13.025 14.7389C12.9225 14.7389 12.821 14.7187 12.7262 14.6795C12.6315 14.6403 12.5455 14.5828 12.473 14.5103L8.86149 10.8988C8.78899 10.8263 8.73148 10.7402 8.69225 10.6455C8.65301 10.5508 8.63281 10.4492 8.63281 10.3467C8.63281 10.2442 8.65301 10.1427 8.69225 10.0479C8.73148 9.95321 8.78899 9.86713 8.86149 9.79463C8.93399 9.72213 9.02006 9.66462 9.11479 9.62539C9.20952 9.58615 9.31105 9.56595 9.41358 9.56595C9.51611 9.56595 9.61764 9.58615 9.71236 9.62539C9.80709 9.66462 9.89316 9.72213 9.96566 9.79463L13.5771 13.4061Z" fill="white"/>
<path fill-rule="evenodd" clip-rule="evenodd" d="M7.85286 2.76025C8.06006 2.76025 8.25878 2.84256 8.40529 2.98908C8.5518 3.13559 8.63411 3.3343 8.63411 3.5415C8.63411 3.7487 8.5518 3.94742 8.40529 4.09393C8.25878 4.24044 8.06006 4.32275 7.85286 4.32275H4.20703C3.58543 4.32275 2.98929 4.56968 2.54975 5.00922C2.11021 5.44876 1.86328 6.0449 1.86328 6.6665V19.1665C1.86328 19.7881 2.11021 20.3842 2.54975 20.8238C2.98929 21.2633 3.58543 21.5103 4.20703 21.5103H17.7487C18.3703 21.5103 18.9664 21.2633 19.406 20.8238C19.8455 20.3842 20.0924 19.7881 20.0924 19.1665V15.5207C20.0924 15.3135 20.1748 15.1148 20.3213 14.9682C20.4678 14.8217 20.6665 14.7394 20.8737 14.7394C21.0809 14.7394 21.2796 14.8217 21.4261 14.9682C21.5726 15.1148 21.6549 15.3135 21.6549 15.5207V19.1665C21.6544 20.2023 21.2427 21.1956 20.5102 21.928C19.7778 22.6605 18.7845 23.0722 17.7487 23.0728H4.20703C3.1712 23.0722 2.17795 22.6605 1.44551 21.928C0.713061 21.1956 0.301333 20.2023 0.300781 19.1665V6.6665C0.300781 5.6305 0.712331 4.63693 1.4449 3.90437C2.17746 3.1718 3.17103 2.76025 4.20703 2.76025H7.85286Z" fill="white"/>
</svg>
