<svg width="16" height="17" viewBox="0 0 16 17" fill="none" xmlns="http://www.w3.org/2000/svg">
<g clip-path="url(#clip0_1654_4412)">
<path d="M9.46097 6.78009C10.1578 6.78009 10.7227 6.21518 10.7227 5.51834C10.7227 4.8215 10.1578 4.25659 9.46097 4.25659C8.76412 4.25659 8.19922 4.8215 8.19922 5.51834C8.19922 6.21518 8.76412 6.78009 9.46097 6.78009Z" fill="white"/>
<path d="M7.43169 13.4043H2.85786C2.51762 13.4027 2.19189 13.2663 1.9519 13.0252C1.71191 12.784 1.57718 12.4576 1.57718 12.1173V10.4992L4.71263 8.08765L9.10193 11.3997C9.14657 11.433 9.19895 11.4544 9.25414 11.4618C9.30932 11.4693 9.36549 11.4626 9.41737 11.4423L10.2343 11.1269C10.2878 11.1046 10.3359 11.0711 10.3754 11.0287C10.4148 10.9862 10.4447 10.9358 10.463 10.8808L10.5056 10.7736C10.5321 10.707 10.5359 10.6336 10.5166 10.5646C10.4972 10.4956 10.4557 10.4349 10.3984 10.3919L4.97286 6.307C4.89575 6.24842 4.80158 6.2167 4.70474 6.2167C4.6079 6.2167 4.51373 6.24842 4.43662 6.307L1.57718 8.51506V3.96646C1.57718 3.62514 1.71278 3.29779 1.95413 3.05643C2.19549 2.81507 2.52284 2.67948 2.86417 2.67948H11.0151C11.3564 2.67948 11.6837 2.81507 11.9251 3.05643C12.1664 3.29779 12.302 3.62514 12.302 3.96646V8.02771C12.3037 8.11544 12.3396 8.19904 12.4021 8.26064C12.4646 8.32224 12.5487 8.35695 12.6364 8.35734C12.905 8.35653 13.1701 8.41808 13.4108 8.53714C13.4608 8.56278 13.5165 8.57502 13.5726 8.57268C13.6288 8.57034 13.6833 8.5535 13.731 8.52379C13.7786 8.49408 13.8178 8.45252 13.8446 8.40317C13.8714 8.35382 13.885 8.29836 13.8839 8.24221V3.96646C13.884 3.58994 13.8097 3.21711 13.6655 2.8693C13.5212 2.5215 13.3098 2.20554 13.0434 1.93952C12.7769 1.67349 12.4606 1.46262 12.1126 1.31896C11.7645 1.1753 11.3916 1.10168 11.0151 1.1023H2.86417C2.10454 1.1023 1.37603 1.40406 0.838895 1.94119C0.30176 2.47833 0 3.20684 0 3.96646V12.1173C0 12.877 0.30176 13.6055 0.838895 14.1426C1.37603 14.6798 2.10454 14.9815 2.86417 14.9815H7.9427C8.00616 14.9817 8.06828 14.9633 8.12148 14.9288C8.17468 14.8942 8.21665 14.8448 8.24225 14.7868C8.26785 14.7287 8.27598 14.6644 8.26564 14.6018C8.25529 14.5392 8.22692 14.481 8.18401 14.4342C7.96832 14.2168 7.8171 13.9438 7.74713 13.6456C7.73017 13.5754 7.68958 13.513 7.63215 13.4691C7.57473 13.4252 7.50396 13.4023 7.43169 13.4043Z" fill="white"/>
<path d="M14.472 14.0038L15.9009 13.4407C15.9303 13.4291 15.9556 13.4089 15.9734 13.3827C15.9912 13.3566 16.0007 13.3257 16.0007 13.294C16.0007 13.2624 15.9912 13.2315 15.9734 13.2054C15.9556 13.1792 15.9303 13.159 15.9009 13.1474L14.472 12.5843C14.2191 12.4843 13.9893 12.3335 13.797 12.1411C13.6046 11.9488 13.4538 11.719 13.3538 11.4661L12.7907 10.0466C12.779 10.0173 12.7588 9.99212 12.7327 9.97441C12.7065 9.95669 12.6756 9.94724 12.644 9.94727C12.6125 9.94724 12.5816 9.95669 12.5554 9.97441C12.5293 9.99212 12.5091 10.0173 12.4974 10.0466L11.9343 11.4661C11.8345 11.7192 11.6838 11.9491 11.4914 12.1414C11.2991 12.3338 11.0692 12.4845 10.8161 12.5843L9.39662 13.1474C9.36721 13.159 9.34196 13.1792 9.32418 13.2054C9.30639 13.2315 9.29688 13.2624 9.29688 13.294C9.29688 13.3257 9.30639 13.3566 9.32418 13.3827C9.34196 13.4089 9.36721 13.4291 9.39662 13.4407L10.8161 14.0038C11.0692 14.1036 11.2991 14.2543 11.4914 14.4467C11.6838 14.639 11.8345 14.8689 11.9343 15.122L12.4974 16.5415C12.5088 16.5711 12.5289 16.5966 12.5551 16.6146C12.5813 16.6326 12.6123 16.6423 12.644 16.6424C12.6758 16.6423 12.7068 16.6326 12.733 16.6146C12.7592 16.5966 12.7793 16.5711 12.7907 16.5415L13.3538 15.122C13.4538 14.8691 13.6046 14.6393 13.797 14.447C13.9893 14.2546 14.2191 14.1038 14.472 14.0038Z" fill="white"/>
</g>
<defs>
<clipPath id="clip0_1654_4412">
<rect width="16" height="16" fill="white" transform="translate(0 0.5)"/>
</clipPath>
</defs>
</svg>
