<svg width="14" height="15" viewBox="0 0 14 15" fill="none" xmlns="http://www.w3.org/2000/svg">
<path d="M6.9735 14.4999C5.79982 14.5074 4.64352 14.2161 3.61351 13.6534C3.59287 13.6448 3.57074 13.6403 3.54839 13.6403C3.52604 13.6403 3.50391 13.6448 3.48327 13.6534L1.18467 14.3045C1.04399 14.3493 0.893727 14.3546 0.750223 14.3199C0.606719 14.2853 0.475467 14.2119 0.37074 14.1079C0.266013 14.0038 0.191818 13.873 0.156225 13.7298C0.120632 13.5865 0.125002 13.4362 0.16886 13.2952L0.859092 10.9836C0.874082 10.9437 0.874082 10.8997 0.859092 10.8599C0.153169 9.56966 -0.128451 8.08989 0.0542027 6.63057C0.236856 5.17126 0.874504 3.80654 1.87664 2.73012C2.87878 1.6537 4.1945 0.920268 5.63706 0.633913C7.07961 0.347558 8.57571 0.522832 9.91302 1.13486C11.2503 1.74688 12.3609 2.76457 13.0871 4.04347C13.8133 5.32237 14.1182 6.79751 13.9587 8.25953C13.7991 9.72155 13.183 11.0962 12.198 12.1883C11.213 13.2804 9.90903 14.0345 8.47118 14.3436C7.97849 14.446 7.47672 14.4984 6.9735 14.4999ZM3.52886 12.631C3.72217 12.6337 3.91202 12.6828 4.08234 12.7743C4.92502 13.2364 5.86605 13.4902 6.82682 13.5144C7.78759 13.5386 8.74021 13.3326 9.6051 12.9135C10.47 12.4944 11.222 11.8745 11.7984 11.1054C12.3748 10.3364 12.7588 9.44055 12.9183 8.4928C13.0778 7.54505 13.0083 6.5729 12.7154 5.65753C12.4225 4.74217 11.9148 3.91018 11.2348 3.23107C10.5547 2.55195 9.72203 2.04543 8.80626 1.75381C7.89049 1.46219 6.91824 1.39394 5.97071 1.55476C5.02136 1.71249 4.12376 2.09588 3.3534 2.6727C2.58305 3.24951 1.96248 4.00288 1.54388 4.86944C1.12527 5.736 0.920879 6.69041 0.94789 7.6524C0.9749 8.6144 1.23252 9.55584 1.69909 10.3975C1.77245 10.5304 1.81885 10.6765 1.83561 10.8273C1.85237 10.9782 1.83917 11.1309 1.79677 11.2766L1.19118 13.2887L3.20328 12.6831C3.30866 12.6499 3.41836 12.6323 3.52886 12.631Z" fill="#616161"/>
<path d="M4.36864 8.60685C4.81817 8.60685 5.18259 8.24243 5.18259 7.7929C5.18259 7.34336 4.81817 6.97894 4.36864 6.97894C3.91911 6.97894 3.55469 7.34336 3.55469 7.7929C3.55469 8.24243 3.91911 8.60685 4.36864 8.60685Z" fill="#616161"/>
<path d="M6.97411 8.60685C7.42364 8.60685 7.78806 8.24243 7.78806 7.7929C7.78806 7.34336 7.42364 6.97894 6.97411 6.97894C6.52458 6.97894 6.16016 7.34336 6.16016 7.7929C6.16016 8.24243 6.52458 8.60685 6.97411 8.60685Z" fill="#616161"/>
<path d="M9.57762 8.60685C10.0272 8.60685 10.3916 8.24243 10.3916 7.7929C10.3916 7.34336 10.0272 6.97894 9.57762 6.97894C9.12809 6.97894 8.76367 7.34336 8.76367 7.7929C8.76367 8.24243 9.12809 8.60685 9.57762 8.60685Z" fill="#616161"/>
</svg>
