<svg width="16" height="15" viewBox="0 0 16 15" fill="none" xmlns="http://www.w3.org/2000/svg">
<path fill-rule="evenodd" clip-rule="evenodd" d="M4.30525 4.49343L7.27901 0.394272C7.36884 0.270452 7.47967 0.171201 7.60406 0.103194C7.72844 0.0351869 7.86349 0 8.00012 0C8.13676 0 8.27181 0.0351869 8.39619 0.103194C8.52058 0.171201 8.63141 0.270452 8.72124 0.394272L11.695 4.49343L14.5326 2.33824C14.6883 2.22052 14.869 2.15923 15.0529 2.16169C15.2368 2.16415 15.4163 2.23027 15.5698 2.35214C15.7233 2.474 15.8444 2.64647 15.9186 2.8489C15.9928 3.05134 16.017 3.2752 15.9882 3.49371L14.6397 13.6271C14.5889 14.0099 14.4263 14.3584 14.1811 14.6101C13.9358 14.8617 13.6241 14.9999 13.3017 15H2.69855C2.03325 15 1.46544 14.4182 1.36051 13.6271L0.0120426 3.49371C-0.0170683 3.27509 0.00686284 3.05102 0.0809672 2.84836C0.155072 2.64569 0.276204 2.47303 0.429843 2.35107C0.583482 2.22912 0.763107 2.16304 0.947184 2.16076C1.13126 2.15849 1.31198 2.22011 1.46767 2.33824L4.30525 4.49343ZM1.16999 3.70045L2.46264 13.4149C2.47151 13.4825 2.50014 13.5441 2.54338 13.5886C2.58663 13.633 2.64165 13.6575 2.69855 13.6575H13.3017C13.3586 13.6575 13.4136 13.633 13.4569 13.5886C13.5001 13.5441 13.5287 13.4825 13.5376 13.4149L14.8303 3.70045L12.1757 5.71602C11.9827 5.86265 11.7524 5.9215 11.5264 5.88195C11.3005 5.8424 11.0937 5.70706 10.9434 5.50033L8.00012 1.44233L5.05687 5.50033C4.74655 5.92725 4.22339 6.01943 3.8245 5.71602L1.16999 3.70045Z" fill="#FEC33A"/>
<path fill-rule="evenodd" clip-rule="evenodd" d="M13.9811 10.3003C14.1291 10.3003 14.2711 10.371 14.3758 10.4969C14.4804 10.6228 14.5392 10.7935 14.5392 10.9716C14.5392 11.1496 14.4804 11.3203 14.3758 11.4462C14.2711 11.5721 14.1291 11.6428 13.9811 11.6428H2.01908C1.87105 11.6428 1.72908 11.5721 1.62441 11.4462C1.51974 11.3203 1.46094 11.1496 1.46094 10.9716C1.46094 10.7935 1.51974 10.6228 1.62441 10.4969C1.72908 10.371 1.87105 10.3003 2.01908 10.3003H13.9811Z" fill="#FEC33A"/>
</svg>
