<svg width="20" height="20" viewBox="0 0 20 20" fill="none" xmlns="http://www.w3.org/2000/svg">
<path d="M4.60146 13.2181C4.50877 13.2181 4.41816 13.1906 4.34109 13.1391C4.26402 13.0876 4.20396 13.0144 4.16849 12.9287C4.13302 12.8431 4.12374 12.7489 4.14181 12.658C4.15989 12.567 4.20452 12.4835 4.27006 12.418L11.5952 5.09281C11.6385 5.04804 11.6902 5.01233 11.7474 4.98776C11.8046 4.9632 11.8661 4.95027 11.9283 4.94972C11.9905 4.94918 12.0523 4.96104 12.1099 4.98461C12.1675 5.00818 12.2198 5.04299 12.2638 5.087C12.3078 5.13101 12.3427 5.18335 12.3662 5.24096C12.3898 5.29857 12.4017 5.36029 12.4011 5.42253C12.4006 5.48477 12.3876 5.54628 12.3631 5.60347C12.3385 5.66066 12.3028 5.71238 12.258 5.75562L4.93287 13.0808C4.84146 13.1722 4.72146 13.2181 4.60146 13.2181Z" fill="white"/>
<path d="M3.87928 16.594C3.80934 16.594 3.74026 16.5784 3.67713 16.5483C3.614 16.5182 3.5584 16.4744 3.51442 16.42C3.47044 16.3656 3.43919 16.302 3.42295 16.234C3.40672 16.166 3.40592 16.0952 3.42061 16.0268L4.14483 12.6511C4.15758 12.5907 4.18211 12.5335 4.21702 12.4826C4.25193 12.4318 4.29654 12.3883 4.34828 12.3547C4.40002 12.3212 4.45788 12.2981 4.51854 12.287C4.5792 12.2758 4.64147 12.2767 4.70178 12.2896C4.76209 12.3026 4.81925 12.3273 4.86999 12.3624C4.92073 12.3974 4.96405 12.4422 4.99746 12.494C5.03088 12.5459 5.05373 12.6038 5.06472 12.6645C5.0757 12.7252 5.0746 12.7874 5.06147 12.8477L4.33725 16.2234C4.31479 16.3282 4.25708 16.4222 4.17375 16.4896C4.09041 16.557 3.98648 16.5939 3.87928 16.594ZM7.25451 15.8697C7.16182 15.8697 7.07121 15.8422 6.99414 15.7907C6.91708 15.7392 6.85701 15.666 6.82154 15.5804C6.78607 15.4947 6.77679 15.4005 6.79487 15.3096C6.81294 15.2187 6.85757 15.1351 6.92311 15.0696L14.2483 7.74467C14.2915 7.6999 14.3432 7.66419 14.4004 7.63962C14.4576 7.61505 14.5191 7.60212 14.5814 7.60158C14.6436 7.60104 14.7053 7.6129 14.7629 7.63647C14.8205 7.66004 14.8729 7.69484 14.9169 7.73886C14.9609 7.78287 14.9957 7.83521 15.0193 7.89281C15.0428 7.95042 15.0547 8.01215 15.0542 8.07439C15.0536 8.13663 15.0407 8.19814 15.0161 8.25532C14.9916 8.31251 14.9558 8.36424 14.9111 8.40748L7.58616 15.7324C7.54266 15.776 7.49096 15.8106 7.43405 15.8342C7.37713 15.8578 7.31612 15.8698 7.25451 15.8697Z" fill="white"/>
<path d="M3.87715 16.5938C3.76164 16.5933 3.65038 16.5502 3.56469 16.4728C3.47899 16.3953 3.42489 16.289 3.41275 16.1741C3.40062 16.0592 3.4313 15.9439 3.49891 15.8503C3.56653 15.7566 3.66633 15.6912 3.77918 15.6666L7.15488 14.9424C7.27627 14.9168 7.40287 14.9403 7.50694 15.0078C7.61101 15.0754 7.68406 15.1814 7.71009 15.3027C7.73611 15.424 7.71298 15.5507 7.64577 15.655C7.57856 15.7593 7.47275 15.8326 7.35152 15.859L3.97582 16.5833C3.94341 16.5903 3.91032 16.5939 3.87715 16.5938ZM13.2526 9.87029C13.191 9.87041 13.1301 9.85833 13.0732 9.83476C13.0163 9.81119 12.9647 9.77658 12.9212 9.73295L10.2697 7.08146C10.225 7.03822 10.1892 6.9865 10.1647 6.92931C10.1401 6.87212 10.1272 6.81061 10.1266 6.74837C10.1261 6.68613 10.138 6.62441 10.1615 6.5668C10.1851 6.50919 10.2199 6.45685 10.2639 6.41284C10.3079 6.36883 10.3603 6.33402 10.4179 6.31045C10.4755 6.28689 10.5372 6.27503 10.5994 6.27557C10.6617 6.27611 10.7232 6.28904 10.7804 6.3136C10.8376 6.33817 10.8893 6.37388 10.9325 6.41865L13.584 9.07014C13.6496 9.13569 13.6942 9.21921 13.7123 9.31012C13.7303 9.40104 13.7211 9.49527 13.6856 9.58091C13.6501 9.66655 13.5901 9.73975 13.513 9.79126C13.4359 9.84277 13.3453 9.87027 13.2526 9.87029ZM14.5785 8.54467C14.4857 8.54474 14.395 8.51729 14.3179 8.46579C14.2407 8.41428 14.1806 8.34105 14.1451 8.25535C14.1096 8.16965 14.1003 8.07535 14.1184 7.98437C14.1365 7.89339 14.1812 7.80983 14.2468 7.74428C14.5077 7.48342 14.6514 7.13021 14.6514 6.75006C14.6514 6.3699 14.5077 6.0167 14.2468 5.75584C13.9857 5.49475 13.6325 5.35107 13.2524 5.35107C12.8722 5.35107 12.519 5.49475 12.2582 5.75584C12.2146 5.79938 12.1629 5.83391 12.1061 5.85747C12.0492 5.88103 11.9882 5.89316 11.9266 5.89316C11.8651 5.89316 11.8041 5.88103 11.7472 5.85747C11.6903 5.83391 11.6387 5.79938 11.5951 5.75584C11.5516 5.7123 11.517 5.66062 11.4935 5.60374C11.4699 5.54685 11.4578 5.48589 11.4578 5.42432C11.4578 5.36275 11.4699 5.30178 11.4935 5.2449C11.517 5.18801 11.5516 5.13633 11.5951 5.09279C12.0329 4.65475 12.6214 4.41357 13.2524 4.41357C13.8831 4.41357 14.4718 4.65475 14.9096 5.09279C15.3477 5.53061 15.5889 6.11912 15.5889 6.75006C15.5889 7.381 15.3477 7.96951 14.9096 8.40732C14.8662 8.45093 14.8146 8.48552 14.7578 8.50909C14.7009 8.53266 14.64 8.54475 14.5785 8.54467Z" fill="white"/>
</svg>
