<svg width="15" height="15" viewBox="0 0 15 15" fill="none" xmlns="http://www.w3.org/2000/svg">
<path d="M9.03711 0.5C9.05283 0.500001 9.07906 0.505008 9.10938 0.535156L14.4463 5.84473C14.4715 5.8698 14.4918 5.90434 14.498 5.97266C14.5032 6.02864 14.497 6.10201 14.4756 6.19141L12.627 8.03125C12.5966 8.0614 12.5704 8.06641 12.5547 8.06641C12.539 8.06636 12.5135 8.06104 12.4834 8.03125L12.0586 7.6084L11.7061 7.25781L11.3535 7.6084L9.5332 9.41895L9.34277 9.6084L9.39648 9.87207C9.48547 10.3147 9.62703 11.1111 9.5918 11.9463C9.55611 12.7912 9.34253 13.5899 8.80566 14.124L8.76855 14.1611C8.76082 14.1611 8.74865 14.1615 8.73242 14.1562C8.71201 14.1496 8.68081 14.1339 8.63965 14.1016L5.20508 10.6855L4.85254 10.335L4.5 10.6855L0.68457 14.4795C0.6824 14.4807 0.678441 14.4837 0.671875 14.4863C0.654563 14.4931 0.63089 14.4988 0.605469 14.5C0.58021 14.5012 0.560902 14.4972 0.548828 14.4932C0.538004 14.4896 0.534524 14.4867 0.53418 14.4863C0.50441 14.4566 0.50009 14.4322 0.5 14.4189C0.5 14.4058 0.504029 14.3806 0.53418 14.3506L4.35547 10.5498L4.71191 10.1953L4.35547 9.84082L0.898438 6.40234C0.868528 6.37259 0.864359 6.34823 0.864258 6.33496C0.864258 6.3218 0.868178 6.2967 0.898438 6.2666C1.43593 5.73199 2.24092 5.51994 3.0918 5.48438C3.93236 5.4493 4.73364 5.59018 5.17871 5.67871L5.44043 5.73047L5.62891 5.54297L7.44922 3.73242L7.80566 3.37793L7.44922 3.02344L7.02441 2.60156C7.01716 2.59435 7.00711 2.58152 6.99902 2.56543C6.99128 2.54999 6.98816 2.53738 6.9873 2.5293C6.98666 2.52292 6.98689 2.5187 6.98828 2.51465C6.98969 2.51072 6.99696 2.49313 7.02441 2.46582L8.96484 0.535156C8.99516 0.505009 9.02139 0.5 9.03711 0.5Z" stroke="white"/>
</svg>
