<svg width="20" height="20" viewBox="0 0 20 20" fill="none" xmlns="http://www.w3.org/2000/svg">
<path fill-rule="evenodd" clip-rule="evenodd" d="M5.57833 6.66914C5.71057 6.66036 5.84089 6.70444 5.94065 6.7917C6.0404 6.87895 6.10144 7.00224 6.11033 7.13447L6.417 11.7345C6.477 12.6325 6.51967 13.2578 6.613 13.7278C6.70433 14.1845 6.831 14.4258 7.013 14.5965C7.19567 14.7671 7.445 14.8778 7.90633 14.9378C8.38233 14.9998 9.009 15.0011 9.909 15.0011H10.425C11.325 15.0011 11.9517 14.9998 12.4277 14.9378C12.889 14.8778 13.1383 14.7671 13.321 14.5965C13.503 14.4258 13.6297 14.1845 13.721 13.7278C13.8143 13.2578 13.857 12.6325 13.917 11.7345L14.2237 7.13447C14.228 7.06894 14.2453 7.00492 14.2744 6.94605C14.3035 6.88719 14.344 6.83463 14.3934 6.79139C14.4428 6.74815 14.5003 6.71507 14.5625 6.69404C14.6247 6.673 14.6905 6.66443 14.756 6.66881C14.8215 6.67318 14.8856 6.69043 14.9444 6.71955C15.0033 6.74867 15.0558 6.7891 15.0991 6.83853C15.1423 6.88796 15.1754 6.94543 15.1964 7.00764C15.2175 7.06986 15.226 7.13561 15.2217 7.20114L14.9123 11.8358C14.8557 12.6905 14.8097 13.3811 14.7017 13.9238C14.589 14.4871 14.3983 14.9578 14.0037 15.3265C13.6097 15.6958 13.127 15.8551 12.557 15.9291C12.0097 16.0011 11.317 16.0011 10.4603 16.0011H9.87367C9.017 16.0011 8.325 16.0011 7.777 15.9298C7.207 15.8551 6.72433 15.6958 6.33033 15.3265C5.93567 14.9578 5.745 14.4865 5.63233 13.9238C5.52433 13.3811 5.479 12.6905 5.42167 11.8358L5.11233 7.20114C5.10799 7.13561 5.1166 7.06986 5.13766 7.00766C5.15873 6.94545 5.19185 6.88801 5.23512 6.8386C5.2784 6.7892 5.33098 6.74881 5.38987 6.71973C5.44876 6.69065 5.5128 6.67346 5.57833 6.66914ZM9.07033 3.00114H9.03967C8.89567 3.00114 8.76967 3.00114 8.651 3.01981C8.41986 3.05684 8.20059 3.14745 8.01074 3.28439C7.82089 3.42134 7.66573 3.60082 7.55767 3.80847C7.50167 3.91514 7.46233 4.03447 7.417 4.17114L7.407 4.20047L7.34233 4.39381C7.29128 4.57525 7.18022 4.73402 7.0273 4.84421C6.87437 4.95439 6.68861 5.00948 6.50033 5.00047H4.50033C4.36764 5.00047 4.24037 5.05319 4.14654 5.14702C4.05271 5.24085 4 5.36811 4 5.50081C4 5.6335 4.05271 5.76077 4.14654 5.8546C4.24037 5.94843 4.36764 6.00114 4.50033 6.00114H15.8337C15.9663 6.00114 16.0935 5.94846 16.1872 5.85469C16.281 5.76093 16.3337 5.63375 16.3337 5.50114C16.3337 5.36853 16.281 5.24135 16.1872 5.14759C16.0935 5.05382 15.9663 5.00114 15.8337 5.00114H13.7737C13.5956 4.99687 13.4236 4.93565 13.2828 4.82647C13.1421 4.71729 13.0401 4.56589 12.9917 4.39447L12.927 4.20047L12.9177 4.17114C12.8717 4.03447 12.8323 3.91514 12.777 3.80847C12.6689 3.60074 12.5136 3.42121 12.3236 3.28426C12.1337 3.14731 11.9143 3.05674 11.683 3.01981C11.5541 3.00345 11.4242 2.99721 11.2943 3.00114H11.2637H9.07033ZM8.26367 4.79114C8.237 4.86381 8.207 4.93381 8.17233 5.00114H12.1617C12.1271 4.93309 12.0968 4.86295 12.071 4.79114L12.0443 4.71581L11.9783 4.51581C11.9539 4.43225 11.9243 4.35031 11.8897 4.27047C11.8537 4.20115 11.8019 4.14121 11.7386 4.09548C11.6753 4.04975 11.6021 4.0195 11.525 4.00714C11.4381 3.99965 11.3508 3.99765 11.2637 4.00114H9.07033C8.87833 4.00114 8.83833 4.00247 8.809 4.00781C8.73193 4.02009 8.65881 4.05025 8.59549 4.09586C8.53217 4.14147 8.4804 4.20127 8.44433 4.27047C8.431 4.29714 8.41633 4.33381 8.35567 4.51647L8.289 4.71647L8.26367 4.79114Z" fill="#FF3737"/>
</svg>
