<svg width="15" height="15" viewBox="0 0 15 15" fill="none" xmlns="http://www.w3.org/2000/svg">
<path d="M14.547 13.9193L10.9416 10.3715C11.8857 9.34567 12.4658 7.98904 12.4658 6.49621C12.4654 3.30278 9.83505 0.714355 6.59011 0.714355C3.34518 0.714355 0.714844 3.30278 0.714844 6.49621C0.714844 9.68964 3.34518 12.2781 6.59011 12.2781C7.99215 12.2781 9.27807 11.7931 10.2881 10.9869L13.9076 14.5487C14.0839 14.7225 14.3703 14.7225 14.5466 14.5487C14.5886 14.5078 14.6219 14.4588 14.6447 14.4048C14.6675 14.3508 14.6792 14.2927 14.6792 14.2341C14.6793 14.1755 14.6676 14.1174 14.6449 14.0634C14.6222 14.0093 14.5889 13.9603 14.547 13.9193ZM6.59011 11.3885C3.84455 11.3885 1.61884 9.19815 1.61884 6.49621C1.61884 3.79427 3.84455 1.60393 6.59011 1.60393C9.3357 1.60393 11.5614 3.79427 11.5614 6.49621C11.5614 9.19815 9.3357 11.3885 6.59011 11.3885Z" fill="white"/>
</svg>
