<svg width="14" height="16" viewBox="0 0 14 16" fill="none" xmlns="http://www.w3.org/2000/svg">
<path d="M10.573 10.5897C9.85429 10.5897 9.20677 10.9 8.75738 11.3938L4.71521 8.89024C4.82618 8.60656 4.88308 8.30462 4.88296 8C4.8831 7.69538 4.8262 7.39343 4.71521 7.10976L8.75738 4.60613C9.2068 5.09984 9.85429 5.41033 10.573 5.41033C11.9268 5.41033 13.0282 4.30895 13.0282 2.95511C13.0282 1.60127 11.9268 0.5 10.573 0.5C9.21916 0.5 8.11777 1.60139 8.11777 2.95522C8.11772 3.25983 8.17461 3.56175 8.28553 3.84544L4.24347 6.34897C3.79405 5.85526 3.14656 5.54478 2.42788 5.54478C1.07404 5.54478 -0.0273438 6.64628 -0.0273438 8C-0.0273438 9.35381 1.07404 10.4552 2.42788 10.4552C3.14653 10.4552 3.79408 10.1449 4.24347 9.65103L8.28556 12.1546C8.17462 12.4383 8.11771 12.7403 8.11777 13.0449C8.11777 14.3986 9.21913 15.5 10.573 15.5C11.9268 15.5 13.0282 14.3986 13.0282 13.0449C13.0282 11.6911 11.9268 10.5897 10.573 10.5897ZM9.01303 2.95522C9.01303 2.09507 9.71284 1.39528 10.573 1.39528C11.4331 1.39528 12.1329 2.09507 12.1329 2.95522C12.1329 3.81538 11.4331 4.51517 10.573 4.51517C9.71281 4.51517 9.01303 3.81535 9.01303 2.95522ZM2.42788 9.55994C1.56761 9.55994 0.867822 8.86013 0.867822 8C0.867822 7.13987 1.56761 6.44006 2.42788 6.44006C3.28804 6.44006 3.98771 7.13987 3.98771 8C3.98771 8.86013 3.28801 9.55994 2.42788 9.55994ZM9.01303 13.0448C9.01303 12.1846 9.71284 11.4848 10.573 11.4848C11.4331 11.4848 12.1329 12.1846 12.1329 13.0448C12.1329 13.9049 11.4331 14.6047 10.573 14.6047C9.71281 14.6047 9.01303 13.9049 9.01303 13.0448V13.0448Z" fill="white"/>
</svg>
