<svg width="20" height="20" viewBox="0 0 20 20" fill="none" xmlns="http://www.w3.org/2000/svg">
<path d="M11.0371 3.5C11.0528 3.5 11.0791 3.50501 11.1094 3.53516L16.4463 8.84473C16.4715 8.8698 16.4918 8.90434 16.498 8.97266C16.5032 9.02864 16.497 9.10201 16.4756 9.19141L14.627 11.0312C14.5966 11.0614 14.5704 11.0664 14.5547 11.0664C14.539 11.0664 14.5135 11.061 14.4834 11.0312L14.0586 10.6084L13.7061 10.2578L13.3535 10.6084L11.5332 12.4189L11.3428 12.6084L11.3965 12.8721C11.4855 13.3147 11.627 14.1111 11.5918 14.9463C11.5561 15.7912 11.3425 16.5899 10.8057 17.124L10.7686 17.1611C10.7608 17.1611 10.7487 17.1615 10.7324 17.1562C10.712 17.1496 10.6808 17.1339 10.6396 17.1016L7.20508 13.6855L6.85254 13.335L6.5 13.6855L2.68457 17.4795C2.6824 17.4807 2.67844 17.4837 2.67188 17.4863C2.65456 17.4931 2.63089 17.4988 2.60547 17.5C2.58021 17.5012 2.5609 17.4972 2.54883 17.4932C2.538 17.4896 2.53452 17.4867 2.53418 17.4863C2.50441 17.4566 2.50009 17.4322 2.5 17.4189C2.5 17.4058 2.50403 17.3806 2.53418 17.3506L6.35547 13.5498L6.71191 13.1953L6.35547 12.8408L2.89844 9.40234C2.86853 9.37259 2.86436 9.34823 2.86426 9.33496C2.86426 9.3218 2.86818 9.2967 2.89844 9.2666C3.43593 8.73199 4.24092 8.51994 5.0918 8.48438C5.93236 8.4493 6.73364 8.59018 7.17871 8.67871L7.44043 8.73047L7.62891 8.54297L9.44922 6.73242L9.80566 6.37793L9.44922 6.02344L9.02441 5.60156C9.01716 5.59435 9.00711 5.58152 8.99902 5.56543C8.99128 5.54999 8.98816 5.53738 8.9873 5.5293C8.98666 5.52292 8.98689 5.5187 8.98828 5.51465C8.98969 5.51072 8.99696 5.49313 9.02441 5.46582L10.9648 3.53516C10.9952 3.50501 11.0214 3.5 11.0371 3.5Z" stroke="white"/>
<path d="M2.35547 2.64648L17.3555 17.6465" stroke="white" stroke-linecap="round"/>
</svg>
