<svg width="30" height="30" viewBox="0 0 30 30" fill="none" xmlns="http://www.w3.org/2000/svg">
<rect x="0.5" y="0.5" width="29" height="29" rx="14.5" fill="black"/>
<rect x="0.5" y="0.5" width="29" height="29" rx="14.5" stroke="#616161"/>
<path d="M14.9986 15.2256C15.9912 15.2256 16.8507 14.8695 17.5531 14.1671C18.2554 13.4648 18.6115 12.6054 18.6115 11.6127C18.6115 10.6202 18.2555 9.7608 17.553 9.05823C16.8506 8.35602 15.9911 8 14.9986 8C14.0058 8 13.1464 8.35602 12.4441 9.05835C11.7418 9.76068 11.3857 10.6201 11.3857 11.6127C11.3857 12.6054 11.7418 13.4649 12.4442 14.1672C13.1467 14.8694 14.0062 15.2256 14.9986 15.2256H14.9986ZM13.0658 9.67988C13.6047 9.14097 14.2369 8.87902 14.9986 8.87902C15.7602 8.87902 16.3925 9.14097 16.9315 9.67988C17.4704 10.2189 17.7325 10.8512 17.7325 11.6127C17.7325 12.3744 17.4704 13.0066 16.9315 13.5456C16.3925 14.0846 15.7602 14.3466 14.9986 14.3466C14.2371 14.3466 13.6049 14.0845 13.0658 13.5456C12.5268 13.0067 12.2647 12.3744 12.2647 11.6127C12.2647 10.8512 12.5268 10.2189 13.0658 9.67988ZM21.3202 19.5343C21.2999 19.242 21.259 18.9231 21.1986 18.5865C21.1378 18.2473 21.0594 17.9266 20.9655 17.6335C20.8685 17.3306 20.7368 17.0315 20.5737 16.7448C20.4046 16.4472 20.206 16.1881 19.983 15.9749C19.7499 15.7519 19.4645 15.5726 19.1345 15.4417C18.8056 15.3117 18.4411 15.2457 18.0512 15.2457C17.898 15.2457 17.75 15.3085 17.464 15.4948C17.2607 15.6271 17.0568 15.7586 16.8523 15.8891C16.6558 16.0143 16.3896 16.1316 16.0608 16.2378C15.74 16.3416 15.4143 16.3943 15.0928 16.3943C14.7714 16.3943 14.4457 16.3416 14.1247 16.2378C13.7963 16.1317 13.53 16.0144 13.3338 15.8892C13.1062 15.7438 12.9002 15.611 12.7216 15.4946C12.4358 15.3084 12.2877 15.2456 12.1346 15.2456C11.7446 15.2456 11.3802 15.3116 11.0514 15.4419C10.7216 15.5725 10.436 15.7518 10.2027 15.975C9.97978 16.1884 9.78111 16.4473 9.61219 16.7448C9.44936 17.0314 9.31752 17.3305 9.22046 17.6336C9.12671 17.9267 9.04834 18.2473 8.98746 18.5865C8.92702 18.9227 8.88618 19.2417 8.86591 19.5346C8.84599 19.8211 8.83594 20.1192 8.83594 20.4204C8.83594 21.2034 9.08484 21.8373 9.57568 22.3048C10.0605 22.7661 10.7018 23 11.4819 23H18.7045C19.4844 23 20.1258 22.7661 20.6106 22.3048C21.1016 21.8376 21.3505 21.2035 21.3505 20.4203C21.3504 20.118 21.3402 19.8199 21.3202 19.5343ZM20.0046 21.6679C19.6842 21.9728 19.259 22.121 18.7044 22.121H11.4819C10.9273 22.121 10.502 21.9728 10.1818 21.668C9.86766 21.369 9.71499 20.9608 9.71499 20.4204C9.71499 20.1393 9.72425 19.8618 9.74282 19.5954C9.76087 19.334 9.79784 19.0469 9.85269 18.7418C9.9068 18.4404 9.97567 18.1577 10.0576 17.9017C10.1362 17.6562 10.2435 17.4131 10.3765 17.179C10.5034 16.9558 10.6494 16.7643 10.8105 16.6101C10.9612 16.4658 11.1512 16.3477 11.3751 16.2591C11.5821 16.1771 11.8148 16.1323 12.0673 16.1255C12.0981 16.1419 12.1529 16.1732 12.2417 16.231C12.4224 16.3488 12.6307 16.4832 12.861 16.6302C13.1205 16.7957 13.4549 16.9452 13.8544 17.0741C14.2629 17.2062 14.6794 17.2733 15.0929 17.2733C15.5064 17.2733 15.9231 17.2062 16.3313 17.0742C16.7311 16.945 17.0654 16.7957 17.3253 16.63C17.561 16.4794 17.7634 16.3489 17.9441 16.231C18.0329 16.1732 18.0877 16.1419 18.1185 16.1255C18.3712 16.1323 18.6038 16.1771 18.811 16.2591C19.0347 16.3477 19.2247 16.4659 19.3754 16.6101C19.5365 16.7642 19.6825 16.9557 19.8095 17.1791C19.9426 17.4131 20.0499 17.6563 20.1284 17.9016C20.2105 18.1579 20.2795 18.4406 20.3335 18.7416C20.3882 19.0473 20.4253 19.3346 20.4434 19.5955V19.5957C20.462 19.8611 20.4714 20.1385 20.4715 20.4204C20.4714 20.9609 20.3187 21.369 20.0046 21.6679H20.0046Z" fill="white"/>
</svg>
