<svg width="25" height="25" viewBox="0 0 25 25" fill="none" xmlns="http://www.w3.org/2000/svg">
<g clip-path="url(#clip0_472_16404)">
<path d="M18.4145 20.0625H10.9438C10.0351 20.0625 9.2959 19.3233 9.2959 18.4145V10.9438C9.2959 10.0351 10.0351 9.2959 10.9438 9.2959H18.4145C19.3233 9.2959 20.0625 10.0351 20.0625 10.9438V18.4145C20.0625 19.3233 19.3233 20.0625 18.4145 20.0625ZM10.9438 10.3945C10.641 10.3945 10.3945 10.641 10.3945 10.9438V18.4145C10.3945 18.7174 10.641 18.9639 10.9438 18.9639H18.4145C18.7174 18.9639 18.9639 18.7174 18.9639 18.4145V10.9438C18.9639 10.641 18.7174 10.3945 18.4145 10.3945H10.9438ZM8.19726 15.668H7.64795C7.34506 15.668 7.09863 15.4215 7.09863 15.1186V7.64795C7.09863 7.34506 7.34506 7.09863 7.64795 7.09863H15.1186C15.4215 7.09863 15.668 7.34506 15.668 7.64795V8.1698H16.7666V7.64795C16.7666 6.73916 16.0274 6 15.1186 6H7.64795C6.73916 6 6 6.73916 6 7.64795V15.1186C6 16.0274 6.73916 16.7666 7.64795 16.7666H8.19726V15.668Z" fill="#616161"/>
</g>
<defs>
<clipPath id="clip0_472_16404">
<rect width="25" height="25" fill="white"/>
</clipPath>
</defs>
</svg>
