<svg width="25" height="25" viewBox="0 0 25 25" fill="none" xmlns="http://www.w3.org/2000/svg">
<path d="M5.65226 13.292C6.06174 13.7855 6.70287 14.0921 7.32549 14.0921H8.97253C8.60186 14.6828 8.3229 15.2772 8.15289 15.8432C7.89347 16.7069 7.90255 17.4598 8.17917 18.0206C8.49074 18.6522 9.12215 19 9.95699 19C10.0498 19 10.1406 18.9724 10.2177 18.9208C10.2949 18.8691 10.355 18.7957 10.3904 18.7099C11.0404 17.1332 12.7359 14.8671 14.3334 13.3743C14.4964 13.9405 15.0188 14.3561 15.6367 14.3561H17.6436C18.3915 14.3561 19 13.7476 19 12.9997V7.03349C19 6.28557 18.3915 5.67707 17.6436 5.67707H15.6367C15.1792 5.67707 14.7742 5.90503 14.5284 6.25308C14.1565 5.89533 13.6636 5.67707 13.1234 5.67707H8.07027C7.51164 5.67707 7.01418 5.91493 6.63162 6.36493C6.31627 6.73592 6.09229 7.2371 5.98395 7.81428L5.23914 11.7819C5.13921 12.3142 5.28593 12.8505 5.65226 13.292ZM15.2179 7.03346C15.2179 6.80248 15.4058 6.61454 15.6367 6.61454H17.6436C17.8746 6.61454 18.0625 6.80248 18.0625 7.03346V12.9996C18.0625 13.2306 17.8746 13.4185 17.6436 13.4185H15.6367C15.4058 13.4185 15.2179 13.2306 15.2179 12.9996V7.03346ZM6.16056 11.9548L6.90534 7.98722C7.02991 7.32361 7.40137 6.61454 8.0703 6.61454H13.1235C13.7614 6.61454 14.2803 7.19151 14.2803 7.90073V12.1705C12.5134 13.6373 10.5346 16.1565 9.66103 18.0394C9.19495 17.9606 9.06692 17.7011 9.0199 17.6058C8.71565 16.9891 8.96816 15.569 10.2415 13.9086C10.2947 13.8392 10.3275 13.7562 10.336 13.6692C10.3446 13.5821 10.3286 13.4944 10.2899 13.4159C10.2512 13.3375 10.1913 13.2714 10.117 13.2252C10.0427 13.1791 9.95699 13.1546 9.86951 13.1546H7.32546C6.97976 13.1546 6.60616 12.9736 6.37372 12.6934C6.24285 12.5356 6.09959 12.2794 6.16056 11.9548Z" fill="#616161"/>
</svg>
