<svg width="22" height="21" viewBox="0 0 22 21" fill="none" xmlns="http://www.w3.org/2000/svg">
<rect x="1.17601" y="0.308824" width="19.7353" height="19.7353" rx="4.63235" fill="#303030"/>
<rect x="1.17601" y="0.308824" width="19.7353" height="19.7353" rx="4.63235" stroke="#616161" stroke-width="0.617647"/>
<path fill-rule="evenodd" clip-rule="evenodd" d="M7.15818 12.1533C7.28923 12.1533 7.41491 12.2054 7.50757 12.298C7.60024 12.3907 7.6523 12.5164 7.6523 12.6474V13.6357C7.6523 13.7667 7.70436 13.8924 7.79702 13.9851C7.88969 14.0777 8.01537 14.1298 8.14642 14.1298H14.0758C14.2069 14.1298 14.3326 14.0777 14.4252 13.9851C14.5179 13.8924 14.5699 13.7667 14.5699 13.6357V12.6474C14.5699 12.5164 14.622 12.3907 14.7147 12.298C14.8073 12.2054 14.933 12.1533 15.0641 12.1533C15.1951 12.1533 15.3208 12.2054 15.4135 12.298C15.5061 12.3907 15.5582 12.5164 15.5582 12.6474V13.6357C15.5582 14.0288 15.402 14.4059 15.124 14.6839C14.846 14.9619 14.469 15.118 14.0758 15.118H8.14642C7.75327 15.118 7.37623 14.9619 7.09823 14.6839C6.82024 14.4059 6.66406 14.0288 6.66406 13.6357V12.6474C6.66406 12.5164 6.71612 12.3907 6.80879 12.298C6.90145 12.2054 7.02713 12.1533 7.15818 12.1533Z" fill="white"/>
<path fill-rule="evenodd" clip-rule="evenodd" d="M8.29311 9.33298C8.38577 9.24034 8.51143 9.18831 8.64245 9.18831C8.77347 9.18831 8.89913 9.24034 8.99179 9.33298L11.113 11.4542L13.2343 9.33298C13.2799 9.28578 13.3344 9.24814 13.3947 9.22224C13.455 9.19635 13.5198 9.18272 13.5854 9.18215C13.651 9.18158 13.7161 9.19408 13.7768 9.21892C13.8375 9.24377 13.8927 9.28046 13.9391 9.32685C13.9855 9.37325 14.0222 9.42842 14.047 9.48914C14.0719 9.54987 14.0844 9.61493 14.0838 9.68054C14.0832 9.74615 14.0696 9.81099 14.0437 9.87127C14.0178 9.93156 13.9802 9.98608 13.933 10.0317L11.4624 12.5022C11.3697 12.5949 11.2441 12.6469 11.113 12.6469C10.982 12.6469 10.8564 12.5949 10.7637 12.5022L8.29311 10.0317C8.20048 9.939 8.14844 9.81334 8.14844 9.68232C8.14844 9.5513 8.20048 9.42564 8.29311 9.33298Z" fill="white"/>
<path fill-rule="evenodd" clip-rule="evenodd" d="M11.1113 5.72949C11.2424 5.72949 11.368 5.78155 11.4607 5.87422C11.5534 5.96688 11.6054 6.09256 11.6054 6.22361V12.153C11.6054 12.2841 11.5534 12.4098 11.4607 12.5024C11.368 12.5951 11.2424 12.6471 11.1113 12.6471C10.9803 12.6471 10.8546 12.5951 10.7619 12.5024C10.6692 12.4098 10.6172 12.2841 10.6172 12.153V6.22361C10.6172 6.09256 10.6692 5.96688 10.7619 5.87422C10.8546 5.78155 10.9803 5.72949 11.1113 5.72949Z" fill="white"/>
</svg>
