<svg width="25" height="25" viewBox="0 0 25 25" fill="none" xmlns="http://www.w3.org/2000/svg">
<path d="M7.60342 15.2179C7.51072 15.2179 7.42011 15.1904 7.34304 15.1388C7.26598 15.0873 7.20591 15.0141 7.17044 14.9285C7.13497 14.8429 7.12569 14.7486 7.14377 14.6577C7.16185 14.5668 7.20647 14.4833 7.27201 14.4177L14.5972 7.09257C14.6404 7.0478 14.6921 7.01209 14.7493 6.98752C14.8065 6.96295 14.868 6.95002 14.9303 6.94948C14.9925 6.94894 15.0542 6.9608 15.1118 6.98437C15.1694 7.00794 15.2218 7.04274 15.2658 7.08676C15.3098 7.13077 15.3446 7.18311 15.3682 7.24071C15.3917 7.29832 15.4036 7.36005 15.4031 7.42229C15.4025 7.48453 15.3896 7.54604 15.365 7.60322C15.3405 7.66041 15.3047 7.71214 15.26 7.75538L7.93482 15.0805C7.84342 15.1719 7.72342 15.2179 7.60342 15.2179Z" fill="#616161"/>
<path d="M6.87928 18.5935C6.80934 18.5935 6.74026 18.5779 6.67713 18.5478C6.614 18.5177 6.5584 18.4739 6.51442 18.4195C6.47044 18.3651 6.43919 18.3015 6.42295 18.2335C6.40672 18.1655 6.40592 18.0947 6.42061 18.0263L7.14483 14.6506C7.15758 14.5902 7.18211 14.533 7.21702 14.4821C7.25193 14.4313 7.29654 14.3878 7.34828 14.3543C7.40002 14.3207 7.45788 14.2976 7.51854 14.2865C7.5792 14.2753 7.64147 14.2762 7.70178 14.2891C7.76209 14.3021 7.81925 14.3268 7.86999 14.3619C7.92073 14.3969 7.96405 14.4417 7.99746 14.4935C8.03088 14.5454 8.05373 14.6033 8.06472 14.664C8.0757 14.7247 8.0746 14.787 8.06147 14.8472L7.33725 18.2229C7.31479 18.3277 7.25708 18.4217 7.17375 18.4891C7.09041 18.5566 6.98648 18.5934 6.87928 18.5935ZM10.2545 17.8693C10.1618 17.8692 10.0712 17.8417 9.99414 17.7902C9.91708 17.7387 9.85701 17.6655 9.82154 17.5799C9.78607 17.4942 9.77679 17.4 9.79487 17.3091C9.81294 17.2182 9.85757 17.1347 9.92311 17.0691L17.2483 9.74418C17.2915 9.69941 17.3432 9.6637 17.4004 9.63913C17.4576 9.61456 17.5191 9.60163 17.5814 9.60109C17.6436 9.60055 17.7053 9.61241 17.7629 9.63598C17.8205 9.65955 17.8729 9.69436 17.9169 9.73837C17.9609 9.78238 17.9957 9.83472 18.0193 9.89232C18.0428 9.94993 18.0547 10.0117 18.0542 10.0739C18.0536 10.1361 18.0407 10.1976 18.0161 10.2548C17.9916 10.312 17.9558 10.3637 17.9111 10.407L10.5862 17.7319C10.5427 17.7755 10.491 17.8101 10.434 17.8337C10.3771 17.8573 10.3161 17.8694 10.2545 17.8693Z" fill="#616161"/>
<path d="M6.87813 18.5936C6.76262 18.5931 6.65136 18.55 6.56566 18.4725C6.47997 18.3951 6.42587 18.2887 6.41373 18.1739C6.40159 18.059 6.43227 17.9437 6.49989 17.85C6.56751 17.7564 6.6673 17.691 6.78016 17.6664L10.1559 16.9422C10.2772 16.9165 10.4038 16.94 10.5079 17.0076C10.612 17.0751 10.685 17.1812 10.7111 17.3025C10.7371 17.4238 10.714 17.5504 10.6467 17.6547C10.5795 17.759 10.4737 17.8324 10.3525 17.8588L6.9768 18.583C6.94438 18.5901 6.9113 18.5936 6.87813 18.5936ZM16.2536 11.87C16.192 11.8702 16.131 11.8581 16.0742 11.8345C16.0173 11.8109 15.9656 11.7763 15.9222 11.7327L13.2707 9.08122C13.2259 9.03798 13.1902 8.98626 13.1657 8.92907C13.1411 8.87188 13.1282 8.81037 13.1276 8.74813C13.1271 8.68589 13.1389 8.62416 13.1625 8.56655C13.1861 8.50895 13.2209 8.45661 13.2649 8.4126C13.3089 8.36859 13.3612 8.33378 13.4189 8.31021C13.4765 8.28664 13.5382 8.27478 13.6004 8.27532C13.6627 8.27586 13.7242 8.28879 13.7814 8.31336C13.8386 8.33793 13.8903 8.37364 13.9335 8.41841L16.585 11.0699C16.6505 11.1354 16.6952 11.219 16.7132 11.3099C16.7313 11.4008 16.722 11.495 16.6866 11.5807C16.6511 11.6663 16.591 11.7395 16.514 11.791C16.4369 11.8425 16.3463 11.87 16.2536 11.87ZM17.5795 10.5444C17.4867 10.5445 17.396 10.517 17.3188 10.4655C17.2417 10.414 17.1815 10.3408 17.146 10.2551C17.1105 10.1694 17.1012 10.0751 17.1194 9.98412C17.1375 9.89315 17.1822 9.80959 17.2478 9.74403C17.5087 9.48317 17.6523 9.12997 17.6523 8.74981C17.6523 8.36966 17.5087 8.01646 17.2478 7.7556C16.9867 7.4945 16.6335 7.35083 16.2534 7.35083C15.8732 7.35083 15.52 7.4945 15.2591 7.7556C15.2156 7.79913 15.1639 7.83367 15.107 7.85723C15.0502 7.88079 14.9892 7.89292 14.9276 7.89292C14.866 7.89292 14.8051 7.88079 14.7482 7.85723C14.6913 7.83367 14.6396 7.79913 14.5961 7.7556C14.5526 7.71206 14.518 7.66037 14.4945 7.60349C14.4709 7.54661 14.4588 7.48564 14.4588 7.42407C14.4588 7.3625 14.4709 7.30154 14.4945 7.24465C14.518 7.18777 14.5526 7.13609 14.5961 7.09255C15.0339 6.6545 15.6224 6.41333 16.2534 6.41333C16.8841 6.41333 17.4728 6.6545 17.9106 7.09255C18.3487 7.53036 18.5898 8.11888 18.5898 8.74981C18.5898 9.38075 18.3487 9.96927 17.9106 10.4071C17.8672 10.4507 17.8156 10.4853 17.7588 10.5088C17.7019 10.5324 17.641 10.5445 17.5795 10.5444Z" fill="#616161"/>
</svg>
