<svg width="16" height="16" viewBox="0 0 16 16" fill="none" xmlns="http://www.w3.org/2000/svg">
<path fill-rule="evenodd" clip-rule="evenodd" d="M1.62112 11.7696C1.11362 10.7596 0.828125 9.61861 0.828125 8.41211C0.828125 7.20561 1.11362 6.06461 1.62112 5.05461C2.85362 2.59861 5.39563 0.912109 8.32812 0.912109C11.2606 0.912109 13.8026 2.59861 15.0351 5.05461C15.5426 6.06461 15.8281 7.20561 15.8281 8.41211C15.8281 9.61861 15.5426 10.7596 15.0351 11.7696C13.8026 14.2256 11.2606 15.9121 8.32812 15.9121C5.39563 15.9121 2.85362 14.2256 1.62112 11.7696ZM2.32113 5.92561C2.00363 6.69161 1.82812 7.53161 1.82812 8.41211C1.82812 9.29261 2.00363 10.1326 2.32113 10.8986C3.13762 10.5821 4.10012 10.3281 5.16262 10.1571C5.10763 9.59811 5.07812 9.01361 5.07812 8.41211C5.07812 7.81061 5.10763 7.22611 5.16262 6.66711C4.10012 6.49611 3.13762 6.24211 2.32113 5.92561ZM13.8786 5.03011C13.0418 3.6595 11.7285 2.64592 10.1906 2.18361C10.2601 2.29161 10.3276 2.40611 10.3926 2.52711C10.8191 3.32361 11.1601 4.41161 11.3651 5.67611C12.2991 5.52461 13.1496 5.30411 13.8786 5.03011ZM6.46562 2.18361C4.92771 2.64592 3.61449 3.6595 2.77763 5.03011C3.50663 5.30461 4.35712 5.52461 5.29112 5.67611C5.49612 4.41161 5.83713 3.32361 6.26363 2.52711C6.32863 2.40611 6.39612 2.29161 6.46562 2.18361ZM14.3351 10.8986C14.6526 10.1326 14.8281 9.29261 14.8281 8.41211C14.8281 7.53161 14.6526 6.69161 14.3351 5.92561C13.5186 6.24211 12.5561 6.49611 11.4936 6.66711C11.5486 7.22611 11.5781 7.81061 11.5781 8.41211C11.5781 9.01361 11.5486 9.59811 11.4936 10.1571C12.5561 10.3281 13.5186 10.5821 14.3351 10.8986ZM2.77763 11.7941C3.61449 13.1647 4.92771 14.1783 6.46562 14.6406C6.3938 14.5288 6.32642 14.4142 6.26363 14.2971C5.83713 13.5006 5.49612 12.4126 5.29112 11.1481C4.35712 11.2996 3.50663 11.5201 2.77763 11.7941ZM10.1906 14.6406C11.7285 14.1783 13.0418 13.1647 13.8786 11.7941C13.1496 11.5201 12.2991 11.2996 11.3651 11.1481C11.1601 12.4126 10.8191 13.5006 10.3926 14.2971C10.3276 14.4181 10.2601 14.5326 10.1906 14.6406ZM8.32812 1.91211C8.13562 1.91211 7.95563 2.00361 7.78263 2.15061C7.55063 2.34761 7.33862 2.63811 7.14512 2.99961C6.76312 3.71261 6.46313 4.68211 6.28013 5.80761C6.93513 5.87611 7.62113 5.91211 8.32812 5.91211C9.03512 5.91211 9.72113 5.87561 10.3761 5.80761C10.1931 4.68211 9.89312 3.71261 9.51112 2.99961C9.31763 2.63811 9.10563 2.34761 8.87362 2.15061C8.70062 2.00361 8.52063 1.91211 8.32812 1.91211ZM8.32812 14.9121C8.52063 14.9121 8.70062 14.8206 8.87362 14.6736C9.10563 14.4766 9.31763 14.1861 9.51112 13.8246C9.89312 13.1116 10.1931 12.1421 10.3761 11.0166C9.72113 10.9486 9.03512 10.9121 8.32812 10.9121C7.62113 10.9121 6.93513 10.9486 6.28013 11.0166C6.46313 12.1421 6.76312 13.1116 7.14512 13.8246C7.33862 14.1861 7.55063 14.4766 7.78263 14.6736C7.95563 14.8206 8.13562 14.9121 8.32812 14.9121ZM10.5031 10.0256C10.5521 9.50861 10.5781 8.96811 10.5781 8.41211C10.5781 7.85611 10.5521 7.31561 10.5031 6.79861C9.80762 6.87261 9.07862 6.91211 8.32812 6.91211C7.57762 6.91211 6.84862 6.87261 6.15312 6.79861C6.10413 7.31561 6.07812 7.85611 6.07812 8.41211C6.07812 8.96811 6.10413 9.50861 6.15312 10.0256C6.84862 9.95161 7.57762 9.91211 8.32812 9.91211C9.07862 9.91211 9.80762 9.95161 10.5031 10.0256Z" fill="#46E3FF"/>
</svg>
