<svg width="25" height="25" viewBox="0 0 25 25" fill="none" xmlns="http://www.w3.org/2000/svg">
<path d="M19.3477 11.708C18.9383 11.2145 18.2971 10.9079 17.6745 10.9079H16.0275C16.3981 10.3172 16.6771 9.72284 16.8471 9.15683C17.1065 8.2931 17.0975 7.54017 16.8208 6.97942C16.5093 6.34784 15.8779 6 15.043 6C14.9502 6 14.8594 6.02757 14.7823 6.07922C14.7051 6.13087 14.645 6.20426 14.6096 6.2901C13.9596 7.86677 12.2641 10.1329 10.6666 11.6257C10.5036 11.0595 9.98121 10.6439 9.36325 10.6439H7.35642C6.6085 10.6439 6 11.2524 6 12.0003V17.9665C6 18.7144 6.6085 19.3229 7.35642 19.3229H9.36325C9.82078 19.3229 10.2258 19.095 10.4716 18.7469C10.8435 19.1047 11.3364 19.3229 11.8766 19.3229H16.9297C17.4884 19.3229 17.9858 19.0851 18.3684 18.6351C18.6837 18.2641 18.9077 17.7629 19.016 17.1857L19.7609 13.2181C19.8608 12.6858 19.7141 12.1495 19.3477 11.708ZM9.78214 17.9665C9.78214 18.1975 9.59423 18.3855 9.36325 18.3855H7.35642C7.12544 18.3855 6.9375 18.1975 6.9375 17.9665V12.0004C6.9375 11.7694 7.12544 11.5815 7.35642 11.5815H9.36325C9.59423 11.5815 9.78214 11.7694 9.78214 12.0004V17.9665ZM18.8394 13.0452L18.0947 17.0128C17.9701 17.6764 17.5986 18.3855 16.9297 18.3855H11.8765C11.2386 18.3855 10.7197 17.8085 10.7197 17.0993V12.8295C12.4866 11.3627 14.4654 8.84347 15.339 6.96056C15.805 7.03942 15.9331 7.29891 15.9801 7.39418C16.2843 8.01091 16.0318 9.43096 14.7585 11.0914C14.7053 11.1608 14.6725 11.2438 14.664 11.3308C14.6554 11.4179 14.6714 11.5056 14.7101 11.5841C14.7488 11.6625 14.8087 11.7286 14.883 11.7748C14.9573 11.8209 15.043 11.8454 15.1305 11.8454H17.6745C18.0202 11.8454 18.3938 12.0264 18.6263 12.3066C18.7571 12.4644 18.9004 12.7206 18.8394 13.0452Z" fill="#616161"/>
</svg>
