<svg width="16" height="16" viewBox="0 0 16 16" fill="none" xmlns="http://www.w3.org/2000/svg">
<g clip-path="url(#clip0_407_9699)">
<path d="M13.9973 0.912109H2.83081C1.7739 0.912109 0.914062 1.77197 0.914062 2.82889V13.9954C0.914062 15.0522 1.7739 15.9121 2.83081 15.9121H13.9973C15.0542 15.9121 15.9141 15.0522 15.9141 13.9953V2.82889C15.9141 1.77197 15.0542 0.912109 13.9973 0.912109ZM15.0305 13.9954C15.0305 14.5651 14.567 15.0286 13.9973 15.0286H2.83081C2.26107 15.0286 1.79757 14.5651 1.79757 13.9954V12.3838L4.70543 9.90968C4.75666 9.86596 4.8217 9.84177 4.88904 9.84136C4.95639 9.84096 5.02171 9.86438 5.07346 9.90748L6.89496 11.42C7.0706 11.5658 7.32841 11.5539 7.4898 11.3923L11.8178 7.05771C11.896 6.97935 11.9872 6.97173 12.0348 6.97416C12.0823 6.97659 12.1724 6.99353 12.2422 7.07951L15.0306 10.5128L15.0305 13.9954ZM15.0305 9.11128L12.928 6.52243C12.8247 6.39534 12.6958 6.29134 12.5497 6.21716C12.4037 6.14297 12.2437 6.10024 12.0801 6.09174C11.75 6.07504 11.4263 6.19932 11.1926 6.4334L7.14937 10.4828L5.63795 9.22779C5.42632 9.05152 5.15919 8.95575 4.88377 8.9574C4.60835 8.95905 4.34238 9.05802 4.13288 9.23682L1.79757 11.2238V2.82889C1.79757 2.25915 2.26107 1.79564 2.83081 1.79564H13.9973C14.5671 1.79564 15.0305 2.25915 15.0305 2.82889V9.11128Z" fill="#2ACC44"/>
<path d="M5.63612 2.75769C4.46146 2.75769 3.50586 3.71335 3.50586 4.88795C3.50586 6.06258 4.46149 7.01822 5.63612 7.01822C6.81075 7.01822 7.76639 6.06258 7.76639 4.88795C7.76639 3.71333 6.81078 2.75769 5.63612 2.75769ZM5.63612 6.13471C4.94864 6.13471 4.38937 5.57541 4.38937 4.88795C4.38937 4.20047 4.94864 3.6412 5.63612 3.6412C6.3236 3.6412 6.88288 4.2005 6.88288 4.88795C6.88288 5.57541 6.3236 6.13471 5.63612 6.13471Z" fill="#2ACC44"/>
</g>
<defs>
<clipPath id="clip0_407_9699">
<rect width="15" height="15" fill="white" transform="translate(0.914062 0.912109)"/>
</clipPath>
</defs>
</svg>
