<svg width="25" height="25" viewBox="0 0 25 25" fill="none" xmlns="http://www.w3.org/2000/svg">
<path d="M8.79267 7.97454C11.0072 5.97132 14.3214 5.94069 16.5666 7.76932L14.787 7.83671C14.5573 7.8459 14.3796 8.0358 14.3888 8.26553C14.398 8.48913 14.5818 8.66373 14.8023 8.66373H14.8177L17.5499 8.56265C17.7735 8.55346 17.9481 8.37274 17.9481 8.14914V8.10013L17.847 5.39853C17.8378 5.16881 17.6448 4.99115 17.4182 5.00034C17.1884 5.00953 17.0108 5.19944 17.02 5.42917L17.0843 7.12302C15.9724 6.2133 14.6032 5.68646 13.1391 5.61295C11.3258 5.52106 9.58294 6.14285 8.23827 7.36194C6.38819 9.03742 5.60406 11.5859 6.19216 14.0118C6.23811 14.2017 6.40657 14.3273 6.59342 14.3273C6.62711 14.3273 6.65774 14.3242 6.69143 14.315C6.91197 14.2599 7.04981 14.0363 6.99467 13.8157C6.48009 11.6839 7.1662 9.4448 8.79267 7.97454ZM19.5225 10.9886C19.4673 10.768 19.2437 10.6302 19.0232 10.6853C18.8027 10.7405 18.6648 10.9641 18.72 11.1846C19.2376 13.3165 18.5484 15.5555 16.922 17.0258C15.7794 18.058 14.3459 18.5665 12.9186 18.5665C11.5555 18.5665 10.1955 18.104 9.09898 17.1912L10.9 17.0289C11.1267 17.0074 11.2952 16.8083 11.2737 16.5786C11.2523 16.3489 11.0532 16.1835 10.8235 16.2049L8.10043 16.45C7.87376 16.4714 7.7053 16.6705 7.72674 16.9002L7.97178 19.6233C7.99016 19.8377 8.17088 20 8.38223 20C8.39448 20 8.40673 20 8.41898 19.9969C8.64565 19.9755 8.81411 19.7764 8.79267 19.5467L8.64565 17.8896C9.75753 18.7901 11.1206 19.3139 12.5755 19.3874C12.6919 19.3935 12.8083 19.3966 12.9216 19.3966C14.6094 19.3966 16.2144 18.7779 17.4764 17.6384C19.3264 15.9629 20.1106 13.4176 19.5225 10.9886Z" fill="#616161"/>
</svg>
