<svg width="26" height="25" viewBox="0 0 26 25" fill="none" xmlns="http://www.w3.org/2000/svg">
<path fill-rule="evenodd" clip-rule="evenodd" d="M23.8484 6.07173C21.6338 8.28631 16.4359 13.4832 15.1681 14.7467C14.8967 15.0178 14.5737 15.2318 14.2182 15.3759C13.2015 15.7978 10.7213 16.7707 9.99211 16.8196C9.77716 16.8341 9.56162 16.8024 9.35993 16.7267C9.15825 16.651 8.97509 16.533 8.82276 16.3807C8.67043 16.2283 8.55245 16.0452 8.47673 15.8435C8.40102 15.6418 8.36932 15.4263 8.38377 15.2113C8.43273 14.4821 9.40565 12.004 9.82023 10.9915C9.96502 10.6321 10.1806 10.3061 10.4546 10.0332L19.1317 1.35506C19.5522 0.935365 20.122 0.699646 20.7161 0.699646C21.3102 0.699646 21.88 0.935365 22.3004 1.35506L23.8484 2.90298C24.2681 3.32345 24.5038 3.89327 24.5038 4.48735C24.5038 5.08144 24.2681 5.65126 23.8484 6.07173ZM9.9494 15.254C10.6619 15.1644 12.7442 14.2957 13.6192 13.9321C13.7855 13.8668 13.9366 13.7678 14.0629 13.6415L14.064 13.6405C16.959 10.7511 19.8521 7.85982 22.7432 4.96652C22.8061 4.90363 22.8561 4.82894 22.8902 4.74672C22.9243 4.6645 22.9419 4.57636 22.9419 4.48735C22.9419 4.39834 22.9243 4.31021 22.8902 4.22799C22.8561 4.14577 22.8061 4.07108 22.7432 4.00819L21.1952 2.46027C21.1323 2.39728 21.0577 2.3473 20.9754 2.31321C20.8932 2.27911 20.8051 2.26156 20.7161 2.26156C20.6271 2.26156 20.5389 2.27911 20.4567 2.31321C20.3745 2.3473 20.2998 2.39728 20.2369 2.46027L11.5588 11.1384C11.4338 11.2627 11.3356 11.4112 11.2702 11.5749L11.2681 11.579C10.9088 12.4561 10.039 14.5405 9.9494 15.254Z" fill="white"/>
<path fill-rule="evenodd" clip-rule="evenodd" d="M21.7852 7.03011C21.8578 7.10268 21.9153 7.18883 21.9546 7.28365C21.9939 7.37846 22.0141 7.48009 22.0141 7.58272C22.0141 7.68534 21.9939 7.78697 21.9546 7.88178C21.9153 7.9766 21.8578 8.06275 21.7852 8.13532C21.7126 8.20789 21.6265 8.26545 21.5317 8.30473C21.4368 8.344 21.3352 8.36422 21.2326 8.36422C21.13 8.36422 21.0283 8.344 20.9335 8.30473C20.8387 8.26545 20.7525 8.20789 20.68 8.13532L17.0685 4.52386C16.922 4.3773 16.8396 4.17853 16.8396 3.97126C16.8396 3.76399 16.922 3.56521 17.0685 3.41865C17.2151 3.27209 17.4139 3.18976 17.6211 3.18976C17.8284 3.18976 18.0272 3.27209 18.1737 3.41865L21.7852 7.03011ZM15.4091 13.4062C15.4816 13.4787 15.5392 13.5647 15.5784 13.6595C15.6176 13.7542 15.6378 13.8557 15.6378 13.9582C15.6378 14.0608 15.6176 14.1623 15.5784 14.257C15.5392 14.3517 15.4816 14.4378 15.4091 14.5103C15.3366 14.5828 15.2506 14.6403 15.1559 14.6796C15.0611 14.7188 14.9596 14.739 14.8571 14.739C14.7545 14.739 14.653 14.7188 14.5583 14.6796C14.4636 14.6403 14.3775 14.5828 14.305 14.5103L10.6935 10.8989C10.621 10.8264 10.5635 10.7403 10.5243 10.6456C10.485 10.5508 10.4648 10.4493 10.4648 10.3468C10.4648 10.2442 10.485 10.1427 10.5243 10.048C10.5635 9.95327 10.621 9.8672 10.6935 9.79469C10.766 9.72219 10.8521 9.66468 10.9468 9.62545C11.0415 9.58621 11.1431 9.56601 11.2456 9.56601C11.3481 9.56601 11.4497 9.58621 11.5444 9.62545C11.6391 9.66468 11.7252 9.72219 11.7977 9.79469L15.4091 13.4062Z" fill="white"/>
<path fill-rule="evenodd" clip-rule="evenodd" d="M9.68294 2.76038C9.89014 2.76038 10.0889 2.84269 10.2354 2.9892C10.3819 3.13571 10.4642 3.33443 10.4642 3.54163C10.4642 3.74883 10.3819 3.94754 10.2354 4.09405C10.0889 4.24057 9.89014 4.32288 9.68294 4.32288H6.03711C5.41551 4.32288 4.81937 4.56981 4.37983 5.00934C3.94029 5.44888 3.69336 6.04502 3.69336 6.66663V19.1666C3.69336 19.7882 3.94029 20.3844 4.37983 20.8239C4.81937 21.2634 5.41551 21.5104 6.03711 21.5104H19.5788C20.2004 21.5104 20.7965 21.2634 21.2361 20.8239C21.6756 20.3844 21.9225 19.7882 21.9225 19.1666V15.5208C21.9225 15.3136 22.0048 15.1149 22.1513 14.9684C22.2979 14.8219 22.4966 14.7395 22.7038 14.7395C22.911 14.7395 23.1097 14.8219 23.2562 14.9684C23.4027 15.1149 23.485 15.3136 23.485 15.5208V19.1666C23.4845 20.2025 23.0727 21.1957 22.3403 21.9282C21.6079 22.6606 20.6146 23.0723 19.5788 23.0729H6.03711C5.00128 23.0723 4.00803 22.6606 3.27558 21.9282C2.54314 21.1957 2.13141 20.2025 2.13086 19.1666V6.66663C2.13086 5.63062 2.54241 4.63705 3.27497 3.90449C4.00754 3.17193 5.00111 2.76038 6.03711 2.76038H9.68294Z" fill="white"/>
</svg>
