<svg width="19" height="15" viewBox="0 0 19 15" fill="none" xmlns="http://www.w3.org/2000/svg">
<path fill-rule="evenodd" clip-rule="evenodd" d="M1.95465 1.16779L7.35777 6.57326C8.53621 7.74943 10.4625 7.75044 11.642 6.57326L17.0451 1.16779C17.0579 1.15509 17.0677 1.13973 17.0739 1.12281C17.08 1.10588 17.0824 1.08781 17.0808 1.06986C17.0792 1.05192 17.0737 1.03454 17.0647 1.01897C17.0556 1.00339 17.0432 0.990001 17.0284 0.979741C16.4773 0.595405 15.8068 0.367554 15.0846 0.367554H3.9152C3.19289 0.367554 2.52238 0.595444 1.97129 0.979741C1.95648 0.990001 1.94411 1.00339 1.93506 1.01897C1.926 1.03454 1.92049 1.05192 1.9189 1.06986C1.91731 1.08781 1.91969 1.10588 1.92587 1.12281C1.93205 1.13973 1.94187 1.15509 1.95465 1.16779ZM0.510743 3.77197C0.510303 3.22274 0.64378 2.68169 0.89961 2.19568C0.908541 2.17854 0.921389 2.16376 0.937109 2.15253C0.95283 2.14129 0.970978 2.13392 0.990081 2.13102C1.00918 2.12812 1.0287 2.12977 1.04705 2.13583C1.06539 2.1419 1.08205 2.1522 1.09567 2.16591L6.43039 7.50064C8.11973 9.19244 10.879 9.19341 12.5694 7.50064L17.9041 2.16591C17.9177 2.1522 17.9344 2.1419 17.9527 2.13583C17.9711 2.12977 17.9906 2.12812 18.0097 2.13102C18.0288 2.13392 18.0469 2.14129 18.0627 2.15253C18.0784 2.16376 18.0912 2.17854 18.1002 2.19568C18.356 2.68169 18.4894 3.22274 18.489 3.77197V10.8789C18.489 12.7575 16.9609 14.2833 15.0846 14.2833H3.9152C2.03895 14.2833 0.510743 12.7575 0.510743 10.8789V3.77197Z" fill="black"/>
</svg>
