<svg width="20" height="21" viewBox="0 0 20 21" fill="none" xmlns="http://www.w3.org/2000/svg">
<path d="M19.2446 8.58669L11.0868 8.5863C10.7266 8.5863 10.4346 8.87826 10.4346 9.23849V11.8445C10.4346 12.2047 10.7266 12.4967 11.0868 12.4967H15.6807C15.1777 13.8022 14.2388 14.8956 13.0409 15.5902L14.9998 18.9812C18.142 17.1639 19.9998 13.9753 19.9998 10.4058C19.9998 9.89759 19.9623 9.53427 19.8874 9.12517C19.8304 8.81435 19.5606 8.58669 19.2446 8.58669Z" fill="#167EE6"/>
<path d="M9.99957 16.4124C7.75137 16.4124 5.78871 15.184 4.73461 13.3663L1.34375 15.3208C3.06934 18.3115 6.30191 20.3254 9.99957 20.3254C11.8135 20.3254 13.5251 19.837 14.9996 18.9859V18.9813L13.0407 15.5902C12.1447 16.1099 11.1078 16.4124 9.99957 16.4124Z" fill="#12B347"/>
<path d="M15 18.9859V18.9812L13.0411 15.5902C12.1451 16.1099 11.1083 16.4124 10 16.4124V20.3254C11.8139 20.3254 13.5256 19.837 15 18.9859Z" fill="#0F993E"/>
<path d="M3.91305 10.3254C3.91305 9.21727 4.21547 8.18051 4.73504 7.28453L1.34418 5.33008C0.488359 6.79988 0 8.50684 0 10.3254C0 12.144 0.488359 13.851 1.34418 15.3208L4.73504 13.3663C4.21547 12.4704 3.91305 11.4336 3.91305 10.3254Z" fill="#FFD500"/>
<path d="M9.99957 4.23849C11.4656 4.23849 12.8123 4.75942 13.8641 5.62595C14.1236 5.8397 14.5007 5.82427 14.7384 5.58657L16.5849 3.74009C16.8546 3.4704 16.8354 3.02895 16.5473 2.77903C14.785 1.25017 12.492 0.325439 9.99957 0.325439C6.30191 0.325439 3.06934 2.33939 1.34375 5.33009L4.73461 7.28454C5.78871 5.46685 7.75137 4.23849 9.99957 4.23849Z" fill="#FF4B26"/>
<path d="M13.8645 5.62595C14.124 5.8397 14.5012 5.82427 14.7389 5.58657L16.5854 3.74009C16.855 3.4704 16.8358 3.02895 16.5477 2.77903C14.7854 1.25013 12.4925 0.325439 10 0.325439V4.23849C11.466 4.23849 12.8127 4.75942 13.8645 5.62595Z" fill="#D93F21"/>
</svg>
