<svg width="13" height="13" viewBox="0 0 13 13" fill="none" xmlns="http://www.w3.org/2000/svg">
<path d="M12.3 6.11706L8.50828 2.32539C8.40612 2.22672 8.2693 2.17213 8.12728 2.17336C7.98525 2.17459 7.8494 2.23156 7.74897 2.33199C7.64854 2.43242 7.59157 2.56828 7.59034 2.7103C7.5891 2.85232 7.6437 2.98915 7.74237 3.09131L10.6094 5.95835H1.08366C0.94 5.95835 0.802225 6.01542 0.700643 6.117C0.59906 6.21858 0.541992 6.35636 0.541992 6.50002C0.541992 6.64368 0.59906 6.78145 0.700643 6.88303C0.802225 6.98462 0.94 7.04168 1.08366 7.04168H10.6094L7.74237 9.90873C7.69063 9.95869 7.64937 10.0185 7.62098 10.0845C7.59259 10.1506 7.57765 10.2217 7.57702 10.2936C7.5764 10.3656 7.5901 10.4369 7.61734 10.5035C7.64457 10.57 7.68479 10.6305 7.73565 10.6814C7.78651 10.7322 7.84699 10.7724 7.91356 10.7997C7.98013 10.8269 8.05145 10.8406 8.12338 10.84C8.1953 10.8394 8.26638 10.8244 8.33246 10.796C8.39855 10.7676 8.45832 10.7264 8.50828 10.6746L12.3 6.88298C12.4015 6.7814 12.4585 6.64365 12.4585 6.50002C12.4585 6.35639 12.4015 6.21864 12.3 6.11706Z" fill="black"/>
</svg>
