<svg width="26" height="25" viewBox="0 0 26 25" fill="none" xmlns="http://www.w3.org/2000/svg">
<g clip-path="url(#clip0_466_15348)">
<path d="M18.7532 15.9809C18.1782 15.981 17.712 15.515 17.7119 14.94C17.7118 14.365 18.1778 13.8988 18.7528 13.8987C19.3278 13.8986 19.7939 14.3646 19.7941 14.9396C19.7935 15.5142 19.3279 15.98 18.7532 15.9809ZM7.24683 15.9809C6.67183 15.981 6.20566 15.515 6.20552 14.94C6.20542 14.365 6.67144 13.8988 7.24644 13.8987C7.82144 13.8986 8.2876 14.3646 8.28774 14.9396C8.28716 15.5143 7.82153 15.9801 7.24683 15.9809ZM19.1265 9.71018L21.2069 6.10686C21.2644 6.00746 21.28 5.8893 21.2504 5.77838C21.2207 5.66746 21.1482 5.57287 21.0488 5.5154C20.9494 5.45794 20.8313 5.44231 20.7204 5.47196C20.6094 5.50161 20.5148 5.57411 20.4574 5.67351L18.3506 9.32233C16.7396 8.58708 14.9304 8.17766 12.9998 8.17766C11.0692 8.17766 9.26016 8.58767 7.64917 9.32233L5.54263 5.67351C5.51421 5.62427 5.47638 5.58112 5.43129 5.54651C5.3862 5.5119 5.33473 5.48651 5.27983 5.47179C5.22492 5.45707 5.16765 5.45331 5.1113 5.46073C5.05494 5.46815 5.0006 5.48659 4.95137 5.51501C4.90213 5.54342 4.85898 5.58125 4.82437 5.62635C4.78976 5.67144 4.76437 5.72291 4.74965 5.77781C4.73493 5.83272 4.73118 5.88998 4.73859 5.94634C4.74601 6.0027 4.76445 6.05704 4.79287 6.10627L6.87349 9.71018C3.30098 11.6533 0.857422 15.2699 0.5 19.543H25.5C25.1422 15.2699 22.6988 11.6533 19.1265 9.71018Z" fill="#099C20"/>
</g>
<defs>
<clipPath id="clip0_466_15348">
<rect width="25" height="25" fill="white" transform="translate(0.5)"/>
</clipPath>
</defs>
</svg>
