<svg width="20" height="25" viewBox="0 0 20 25" fill="none" xmlns="http://www.w3.org/2000/svg">
<path d="M13.6534 3.7995C14.5941 2.79243 15.2304 1.39424 15.0563 0C13.701 0.0483642 12.0585 0.795522 11.0858 1.80251C10.2137 2.69399 9.45029 4.11876 9.65404 5.48565C11.1663 5.58795 12.7112 4.80495 13.6534 3.7995ZM16.5396 13.4282C16.5107 10.3024 19.0143 8.80117 19.1252 8.72862C17.7177 6.606 15.5256 6.31556 14.7449 6.2828C12.8783 6.08686 11.1054 7.41319 10.1578 7.41319C9.21396 7.41319 7.75412 6.30853 6.20604 6.3382C4.17088 6.37173 2.29565 7.55682 1.25042 9.43505C-0.863711 13.2135 0.708553 18.8108 2.76866 21.8757C3.77573 23.3761 4.97481 25.0593 6.54939 24.9984C8.06934 24.9375 8.64234 23.9874 10.4761 23.9874C12.3107 23.9874 12.8244 24.9984 14.4294 24.9679C16.0626 24.9375 17.0961 23.4386 18.0946 21.9335C19.25 20.1934 19.7262 18.5087 19.7535 18.4237C19.7184 18.4033 16.5731 17.166 16.5396 13.4282Z" fill="#303030"/>
</svg>
