<svg width="32" height="32" viewBox="0 0 32 32" fill="none" xmlns="http://www.w3.org/2000/svg">
<g filter="url(#filter0_d_1868_669)">
<rect x="4" width="24" height="24" rx="12" fill="url(#paint0_linear_1868_669)" shape-rendering="crispEdges"/>
<rect x="4.5" y="0.5" width="23" height="23" rx="11.5" stroke="#616161" shape-rendering="crispEdges"/>
<g clip-path="url(#clip0_1868_669)">
<path d="M20.5939 15.8538C20.7126 15.6713 20.5626 15.41 20.3439 15.4275C15.6501 15.705 12.9964 10.01 16.1739 6.55755C16.3264 6.40255 16.2226 6.11255 16.0051 6.09255C12.2289 5.57505 8.78764 8.6263 8.81264 12.4575C8.83764 18.8601 17.2026 21.2938 20.5939 15.8538ZM9.36514 12.4575C9.35764 9.14505 12.1289 6.46255 15.4176 6.6013C14.6467 7.62082 14.2302 8.86437 14.2314 10.1425C14.2314 13.2975 16.7226 15.8763 19.8289 15.99C16.4901 20.4513 9.37014 18.0388 9.36514 12.4575Z" fill="url(#paint1_linear_1868_669)"/>
<path d="M21.5541 11.8163L20.5828 11.6738L20.1478 10.7875C20.0566 10.5838 19.7441 10.5838 19.6516 10.7875L19.2166 11.6738L18.2453 11.8163C18.1416 11.8313 18.0541 11.905 18.0216 12.0063C17.9891 12.1075 18.0166 12.2175 18.0916 12.2913L18.7941 12.9813L18.6278 13.9563C18.6103 14.0613 18.6528 14.1663 18.7378 14.2288C18.8228 14.2913 18.9366 14.2988 19.0291 14.25L19.8978 13.79L20.7666 14.25C20.9603 14.36 21.2128 14.175 21.1678 13.9563L21.0016 12.9813L21.7041 12.2913C21.8678 12.1413 21.7728 11.8413 21.5516 11.8163H21.5541ZM20.5141 12.685C20.482 12.7166 20.458 12.7555 20.4441 12.7984C20.4301 12.8412 20.4267 12.8868 20.4341 12.9313L20.5303 13.4938L20.0291 13.2288C19.9491 13.1863 19.8528 13.1863 19.7716 13.2288L19.2703 13.495L19.3666 12.9325C19.3816 12.8425 19.3528 12.75 19.2866 12.6863L18.8803 12.2875L19.4416 12.205C19.5316 12.1913 19.6091 12.135 19.6491 12.0525L19.9003 11.5413L20.1516 12.0525C20.1916 12.135 20.2691 12.1913 20.3591 12.205L20.9203 12.2875L20.5141 12.6863V12.685ZM22.9516 6.15001L22.1303 6.03001L21.7628 5.28001C21.6716 5.07626 21.3591 5.07626 21.2666 5.28001L20.8991 6.03001L20.0778 6.15001C19.9741 6.16501 19.8866 6.23876 19.8541 6.34001C19.8216 6.44126 19.8491 6.55126 19.9241 6.62501L20.5191 7.20876L20.3791 8.03251C20.3353 8.25001 20.5866 8.43751 20.7803 8.32626L21.5153 7.93751L22.2503 8.32626C22.3428 8.37501 22.4566 8.36751 22.5416 8.30501C22.6266 8.24251 22.6691 8.13751 22.6516 8.03251L22.5116 7.20876L23.1066 6.62501C23.2703 6.47501 23.1753 6.17501 22.9528 6.15001H22.9516ZM22.0203 6.91251C21.9883 6.94415 21.9642 6.98303 21.9503 7.02588C21.9364 7.06874 21.933 7.11431 21.9403 7.15876L22.0103 7.57126L21.6428 7.37626C21.5628 7.33376 21.4666 7.33376 21.3853 7.37626L21.0178 7.57126L21.0878 7.15876C21.0952 7.11431 21.0918 7.06874 21.0779 7.02588C21.0639 6.98303 21.0399 6.94415 21.0078 6.91251L20.7103 6.62001L21.1216 6.56001C21.2116 6.54626 21.2891 6.49001 21.3303 6.40751L21.5141 6.03251L21.6978 6.40751C21.7378 6.49001 21.8166 6.54626 21.9066 6.56001L22.3178 6.62001L22.0203 6.91251ZM19.3466 8.14501C19.3141 8.04376 19.2278 7.97126 19.1228 7.95501L18.1403 7.81126L17.7016 6.91501C17.6103 6.71126 17.2978 6.71126 17.2053 6.91501L16.7666 7.81126L15.7841 7.95501C15.6803 7.97001 15.5928 8.04376 15.5603 8.14501C15.5278 8.24626 15.5553 8.35626 15.6303 8.43001L16.3403 9.12751L16.1728 10.1125C16.1553 10.2175 16.1978 10.3225 16.2828 10.385C16.3678 10.4475 16.4803 10.455 16.5741 10.4063L17.4528 9.94126L18.3316 10.4063C18.5253 10.5163 18.7778 10.3313 18.7328 10.1125L18.5653 9.12751L19.2766 8.43001C19.3516 8.35626 19.3791 8.24501 19.3466 8.14501ZM18.0753 8.83126C18.0433 8.8629 18.0192 8.90178 18.0053 8.94463C17.9914 8.98749 17.988 9.03306 17.9953 9.07751L18.0928 9.65001L17.5816 9.38001C17.5016 9.33751 17.4053 9.33751 17.3241 9.38001L16.8128 9.65001L16.9103 9.07751C16.9177 9.03306 16.9143 8.98749 16.9004 8.94463C16.8864 8.90178 16.8624 8.8629 16.8303 8.83126L16.4166 8.42501L16.9878 8.34126C17.0778 8.32751 17.1553 8.27126 17.1966 8.18876L17.4516 7.66751L17.7066 8.18876C17.7466 8.27126 17.8253 8.32751 17.9153 8.34126L18.4866 8.42501L18.0728 8.83126H18.0753Z" fill="url(#paint2_linear_1868_669)"/>
</g>
</g>
<defs>
<filter id="filter0_d_1868_669" x="0" y="0" width="32" height="32" filterUnits="userSpaceOnUse" color-interpolation-filters="sRGB">
<feFlood flood-opacity="0" result="BackgroundImageFix"/>
<feColorMatrix in="SourceAlpha" type="matrix" values="0 0 0 0 0 0 0 0 0 0 0 0 0 0 0 0 0 0 127 0" result="hardAlpha"/>
<feOffset dy="4"/>
<feGaussianBlur stdDeviation="2"/>
<feComposite in2="hardAlpha" operator="out"/>
<feColorMatrix type="matrix" values="0 0 0 0 0 0 0 0 0 0 0 0 0 0 0 0 0 0 0.25 0"/>
<feBlend mode="normal" in2="BackgroundImageFix" result="effect1_dropShadow_1868_669"/>
<feBlend mode="normal" in="SourceGraphic" in2="effect1_dropShadow_1868_669" result="shape"/>
</filter>
<linearGradient id="paint0_linear_1868_669" x1="16" y1="0" x2="10.5" y2="23" gradientUnits="userSpaceOnUse">
<stop stop-color="#8A8A8A"/>
<stop offset="1" stop-color="#191919"/>
</linearGradient>
<linearGradient id="paint1_linear_1868_669" x1="14.7241" y1="6.03516" x2="14.7241" y2="18.8588" gradientUnits="userSpaceOnUse">
<stop stop-color="white"/>
<stop offset="1" stop-color="#999999"/>
</linearGradient>
<linearGradient id="paint2_linear_1868_669" x1="19.368" y1="5.1272" x2="19.368" y2="14.2827" gradientUnits="userSpaceOnUse">
<stop stop-color="white"/>
<stop offset="1" stop-color="#999999"/>
</linearGradient>
<clipPath id="clip0_1868_669">
<rect width="15" height="15" fill="white" transform="translate(8.5 4.5)"/>
</clipPath>
</defs>
</svg>
