<svg width="26" height="25" viewBox="0 0 26 25" fill="none" xmlns="http://www.w3.org/2000/svg">
<path d="M20.9849 11.0007L17.5979 9.04443L14.1304 12.5119L17.5976 15.9792L20.9964 14.0164C21.5264 13.6944 21.8426 13.1319 21.8426 12.5119C21.8426 11.8919 21.5261 11.3294 20.9849 11.0007Z" fill="#FFCE00"/>
<path d="M14.1305 12.5118L4.68572 2.99902C4.51834 3.16484 4.3855 3.36219 4.29487 3.57966C4.20424 3.79714 4.15762 4.03042 4.15771 4.26602V20.7285C4.15771 21.2213 4.35722 21.667 4.68572 21.9958L14.1305 12.5118Z" fill="url(#paint0_linear_466_15335)"/>
<path d="M14.1303 12.5118L17.5978 9.04431L17.6033 9.03881L12.9573 6.36381L6.8328 2.76432C6.2813 2.42407 5.61255 2.41232 5.0493 2.72907C4.9203 2.81107 4.8028 2.89332 4.68555 2.99882L14.1303 12.5118Z" fill="#00F076"/>
<path d="M4.68555 21.9955C4.8028 22.101 4.9203 22.1832 5.0493 22.2652C5.3308 22.4177 5.6243 22.5 5.91755 22.5C6.2343 22.5 6.5393 22.4062 6.82105 22.242L12.957 18.6597L17.603 15.9847L17.5975 15.9792L14.1303 12.5117L4.68555 21.9955Z" fill="#F63448"/>
<defs>
<linearGradient id="paint0_linear_466_15335" x1="-0.0632853" y1="17.2465" x2="9.43497" y2="7.74802" gradientUnits="userSpaceOnUse">
<stop stop-color="#00E2FF"/>
<stop offset="1" stop-color="#00C5FF"/>
</linearGradient>
</defs>
</svg>
