<svg width="31" height="31" viewBox="0 0 31 31" fill="none" xmlns="http://www.w3.org/2000/svg">
<path d="M23.5609 0.5H7.004C3.1358 0.5 0 3.6358 0 7.504V23.496C0 27.3642 3.1358 30.5 7.004 30.5H23.5609C27.4291 30.5 30.5649 27.3642 30.5649 23.496V7.504C30.5649 3.6358 27.4291 0.5 23.5609 0.5Z" fill="white"/>
<path d="M23.6656 1.34192H6.89786C3.56182 1.34192 0.857422 4.04632 0.857422 7.38236V23.6169C0.857422 26.9529 3.56182 29.6573 6.89786 29.6573H23.6656C27.0016 29.6573 29.706 26.9529 29.706 23.6169V7.38236C29.706 4.04632 27.0016 1.34192 23.6656 1.34192Z" fill="#E9E8E8"/>
<g opacity="0.58">
<mask id="mask0_466_15045" style="mask-type:luminance" maskUnits="userSpaceOnUse" x="0" y="0" width="31" height="31">
<path d="M23.5609 0.5H7.004C3.1358 0.5 0 3.6358 0 7.504V23.496C0 27.3642 3.1358 30.5 7.004 30.5H23.5609C27.4291 30.5 30.5649 27.3642 30.5649 23.496V7.504C30.5649 3.6358 27.4291 0.5 23.5609 0.5Z" fill="white"/>
</mask>
<g mask="url(#mask0_466_15045)">
<path d="M26.7586 28.7852C26.7514 28.7852 26.745 28.7859 26.7378 28.7859C26.6493 28.7859 26.578 28.7593 26.5233 28.7176C26.4866 28.6982 26.4557 28.6722 26.4305 28.642H26.1182V25.5599H26.1203V22.8822H25.8217V20.1902C25.8217 20.1902 25.8195 20.1851 25.8188 20.1822H25.7015V19.8944H25.7224C25.7066 19.8469 25.6915 19.7994 25.6749 19.7519C25.6065 19.5526 25.531 19.3576 25.4605 19.1604H24.6674V16.5604H23.6254V17.5837H2.13272V14.3937H0.914414V13.7136L-0.000934839 14.3246L-2.48145 18.797L-1.23435 31.8457L4.81041 34.6285L26.8781 30.4439L26.7579 28.7859L26.7586 28.7852Z" fill="black"/>
</g>
</g>
<mask id="mask1_466_15045" style="mask-type:luminance" maskUnits="userSpaceOnUse" x="0" y="1" width="30" height="29">
<path d="M23.6656 1.34192H6.89786C3.56182 1.34192 0.857422 4.04632 0.857422 7.38236V23.6169C0.857422 26.9529 3.56182 29.6573 6.89786 29.6573H23.6656C27.0016 29.6573 29.706 26.9529 29.706 23.6169V7.38236C29.706 4.04632 27.0016 1.34192 23.6656 1.34192Z" fill="white"/>
</mask>
<g mask="url(#mask1_466_15045)">
<path d="M0.0504608 14.3043C2.0589 12.9126 5.08128 10.9617 7.11851 9.68082C9.51267 8.23079 12.8063 7.76305 15.62 7.99404C19.7909 8.45459 23.4696 11.1639 25.1089 15.1046C26.5179 19.2344 26.302 24.6704 26.7863 29.0564C26.8007 29.3054 26.8762 29.7257 26.8021 29.8739C21.4331 31.0217 5.9477 34.4248 4.78408 34.6183C3.42329 34.0175 -0.123686 32.3559 -1.12611 31.9025C-1.29954 31.8262 -1.24053 31.7204 -1.27291 31.524C-1.49239 28.1648 -2.37176 22.1337 -2.39551 18.6263C-1.69029 17.416 -0.608706 15.2657 0.049741 14.3043H0.0504608Z" fill="black"/>
</g>
<path d="M16.5228 15.4522C16.3781 14.0497 15.1318 13.0257 13.7278 13.1559L12.9873 13.2243L13.0794 14.3555L13.935 14.3282C14.5467 14.3088 15.0584 14.7887 15.0778 15.4004L15.0807 15.4803L13.1766 15.5407L13.3557 17.7341L16.73 17.4621L16.5235 15.4522H16.5228Z" fill="white"/>
<path d="M21.3333 15.0628C21.1707 13.299 19.4048 12.4592 17.7979 12.8349L17.89 13.9661C18.8219 13.8862 19.8452 13.8826 19.8905 15.0909L17.9864 15.1513L18.1656 17.3447L21.5398 17.0727L21.3333 15.0628Z" fill="white"/>
</svg>
