<svg width="25" height="25" viewBox="0 0 25 25" fill="none" xmlns="http://www.w3.org/2000/svg">
<path d="M10.072 12.0156C11.6021 12.0156 12.927 11.4668 14.0098 10.384C15.0923 9.30137 15.6412 7.97671 15.6412 6.44638C15.6412 4.91651 15.0924 3.59171 14.0096 2.5087C12.9268 1.42624 11.6019 0.877441 10.072 0.877441C8.5416 0.877441 7.21689 1.42624 6.13429 2.50888C5.0517 3.59153 4.50267 4.91637 4.50267 6.44638C4.50267 7.97671 5.05165 9.30155 6.13434 10.3842C7.2173 11.4667 8.54214 12.0156 10.0719 12.0156H10.072ZM7.09257 3.46697C7.92326 2.63624 8.89779 2.23245 10.072 2.23245C11.246 2.23245 12.2206 2.63624 13.0515 3.46697C13.8823 4.29785 14.2862 5.27251 14.2862 6.44634C14.2862 7.62052 13.8823 8.59505 13.0515 9.42592C12.2206 10.2568 11.246 10.6606 10.072 10.6606C8.8981 10.6606 7.92366 10.2567 7.09257 9.42592C6.26165 8.59523 5.85768 7.62057 5.85768 6.44638C5.85768 5.27251 6.26165 4.29785 7.09257 3.46697ZM19.8167 18.6575C19.7854 18.2069 19.7223 17.7154 19.6293 17.1965C19.5355 16.6735 19.4147 16.1793 19.27 15.7275C19.1204 15.2605 18.9173 14.7994 18.6659 14.3575C18.4054 13.8988 18.0992 13.4994 17.7555 13.1708C17.3961 12.827 16.9562 12.5505 16.4474 12.3488C15.9404 12.1483 15.3785 12.0467 14.7775 12.0467C14.5415 12.0467 14.3132 12.1435 13.8724 12.4306C13.559 12.6346 13.2447 12.8373 12.9294 13.0384C12.6266 13.2315 12.2162 13.4123 11.7094 13.576C11.2149 13.736 10.7129 13.8172 10.2171 13.8172C9.7218 13.8172 9.2197 13.736 8.72487 13.576C8.21861 13.4124 7.8081 13.2316 7.5057 13.0386C7.1548 12.8144 6.83732 12.6098 6.56192 12.4303C6.12142 12.1434 5.89314 12.0465 5.65712 12.0465C5.0559 12.0465 4.49423 12.1483 3.98739 12.3491C3.47896 12.5503 3.03882 12.8268 2.67912 13.1709C2.33549 13.4998 2.02925 13.8989 1.76885 14.3575C1.51785 14.7994 1.31462 15.2603 1.165 15.7276C1.02049 16.1794 0.899683 16.6735 0.805838 17.1965C0.712671 17.7147 0.649717 18.2064 0.618465 18.658C0.587756 19.0995 0.572266 19.5591 0.572266 20.0234C0.572266 21.2304 0.955954 22.2075 1.71258 22.9282C2.45986 23.6394 3.44848 23.9999 4.65103 23.9999H15.7847C16.9868 23.9999 17.9755 23.6393 18.7229 22.9282C19.4797 22.2081 19.8634 21.2306 19.8634 20.0232C19.8632 19.5573 19.8476 19.0978 19.8167 18.6575ZM17.7887 21.9465C17.2949 22.4164 16.6393 22.6449 15.7844 22.6449H4.65107C3.79604 22.6449 3.14048 22.4164 2.64687 21.9467C2.16266 21.4857 1.92732 20.8564 1.92732 20.0234C1.92732 19.5901 1.94159 19.1624 1.97022 18.7517C1.99804 18.3487 2.05504 17.9061 2.13958 17.4358C2.22299 16.9713 2.32916 16.5354 2.45548 16.1408C2.57669 15.7624 2.74198 15.3877 2.94697 15.0268C3.1426 14.6828 3.36769 14.3876 3.61607 14.1499C3.84843 13.9274 4.14129 13.7453 4.48632 13.6088C4.80543 13.4825 5.1641 13.4133 5.55343 13.4029C5.60085 13.4282 5.68539 13.4763 5.82228 13.5656C6.10083 13.7471 6.42188 13.9542 6.77685 14.1809C7.17697 14.436 7.6924 14.6664 8.30826 14.8652C8.93785 15.0687 9.57999 15.1721 10.2173 15.1721C10.8547 15.1721 11.497 15.0687 12.1263 14.8653C12.7427 14.6662 13.2579 14.436 13.6586 14.1805C14.0218 13.9484 14.3339 13.7473 14.6124 13.5656C14.7493 13.4765 14.8338 13.4281 14.8813 13.4029C15.2708 13.4133 15.6294 13.4825 15.9487 13.6088C16.2936 13.7453 16.5865 13.9276 16.8188 14.1498C17.0672 14.3874 17.2923 14.6826 17.4879 15.027C17.6931 15.3877 17.8586 15.7626 17.9796 16.1406C18.1061 16.5358 18.2124 16.9715 18.2957 17.4356C18.38 17.9068 18.4372 18.3496 18.4651 18.7519V18.7522C18.4938 19.1613 18.5083 19.5889 18.5085 20.0234C18.5083 20.8566 18.2729 21.4857 17.7887 21.9465H17.7887Z" fill="white"/>
</svg>
