<svg width="21" height="21" viewBox="0 0 21 21" fill="none" xmlns="http://www.w3.org/2000/svg">
<path d="M19.8025 7.94186C19.6182 7.94427 19.4422 8.01855 19.3119 8.14887C19.1816 8.27919 19.1073 8.45525 19.1049 8.63953V14.2209L15.2172 9.77442C14.9702 9.51141 14.6719 9.3018 14.3408 9.15851C14.0096 9.01523 13.6527 8.9413 13.2919 8.9413C12.9311 8.9413 12.5742 9.01523 12.243 9.15851C11.9119 9.3018 11.6136 9.51141 11.3666 9.77442L8.6973 12.8256L7.82303 11.7651C7.58211 11.4761 7.28062 11.2435 6.93988 11.0839C6.59915 10.9244 6.2275 10.8416 5.85126 10.8416C5.47501 10.8416 5.10337 10.9244 4.76263 11.0839C4.4219 11.2435 4.1204 11.4761 3.87949 11.7651L1.89841 14.1558V4.9186C1.90087 4.11754 2.22012 3.34999 2.78647 2.78355C3.35282 2.21711 4.12024 1.8978 4.92118 1.89535H12.3618C12.5468 1.89535 12.7243 1.82184 12.8551 1.691C12.9859 1.56017 13.0594 1.38271 13.0594 1.19767C13.0594 1.01264 12.9859 0.835183 12.8551 0.704344C12.7243 0.573505 12.5468 0.5 12.3618 0.5H4.92118C3.74948 0.5 2.62578 0.96553 1.79726 1.79418C0.968748 2.62283 0.503294 3.74672 0.503294 4.9186V16.0814C0.498902 16.0966 0.498902 16.1127 0.503294 16.1279C0.515544 17.2917 0.9864 18.4037 1.81359 19.2223C2.64078 20.0409 3.75749 20.5001 4.92118 20.5H16.0821C17.241 20.4977 18.3526 20.04 19.1773 19.2257C20.0019 18.4113 20.4736 17.3055 20.4907 16.1465V8.63953C20.4884 8.45683 20.4154 8.28212 20.2871 8.15205C20.1588 8.02198 19.9851 7.94665 19.8025 7.94186ZM16.0821 19.1047H4.92118C4.16141 19.1022 3.43041 18.8137 2.87372 18.2966C2.31702 17.7794 1.97546 17.0716 1.91702 16.314L4.92118 12.6581C5.0337 12.5328 5.17136 12.4325 5.3252 12.3638C5.47903 12.2952 5.6456 12.2597 5.81405 12.2597C5.98251 12.2597 6.14907 12.2952 6.30291 12.3638C6.45675 12.4325 6.59441 12.5328 6.70693 12.6581L8.11135 14.3512C8.17576 14.4295 8.25668 14.4926 8.34833 14.5361C8.43998 14.5795 8.54009 14.6021 8.6415 14.6023C8.84233 14.5912 9.03162 14.5049 9.17164 14.3605L12.3711 10.6953C12.485 10.5754 12.622 10.48 12.7739 10.4147C12.9258 10.3495 13.0894 10.3158 13.2547 10.3158C13.42 10.3158 13.5836 10.3495 13.7355 10.4147C13.8874 10.48 14.0244 10.5754 14.1383 10.6953L19.0398 16.2767C18.9931 17.0339 18.6626 17.7455 18.1144 18.2697C17.5662 18.7939 16.8405 19.092 16.0821 19.1047Z" fill="white"/>
<path d="M3.29346 5.84884C3.29346 6.35479 3.44346 6.84938 3.72451 7.27006C4.00556 7.69075 4.40502 8.01863 4.87238 8.21225C5.33974 8.40587 5.85402 8.45653 6.35016 8.35782C6.84631 8.25912 7.30206 8.01548 7.65976 7.65772C8.01746 7.29995 8.26106 6.84414 8.35975 6.34791C8.45844 5.85168 8.40779 5.33732 8.2142 4.86988C8.02062 4.40244 7.69279 4.00291 7.27217 3.72182C6.85156 3.44073 6.35705 3.2907 5.85118 3.2907C5.17283 3.2907 4.52226 3.56021 4.0426 4.03996C3.56293 4.5197 3.29346 5.17038 3.29346 5.84884ZM7.01378 5.84884C7.01378 6.07882 6.94559 6.30363 6.81785 6.49485C6.6901 6.68607 6.50852 6.83511 6.29609 6.92312C6.08365 7.01112 5.84989 7.03415 5.62437 6.98929C5.39884 6.94442 5.19169 6.83367 5.0291 6.67105C4.8665 6.50844 4.75578 6.30125 4.71092 6.07569C4.66606 5.85013 4.68908 5.61633 4.77708 5.40386C4.86507 5.19138 5.01408 5.00978 5.20527 4.88201C5.39646 4.75424 5.62124 4.68605 5.85118 4.68605C6.15952 4.68605 6.45523 4.80855 6.67326 5.02662C6.89129 5.24469 7.01378 5.54045 7.01378 5.84884ZM14.2219 4.68605H16.3146V6.77907C16.3146 6.9641 16.3881 7.14156 16.5189 7.2724C16.6497 7.40324 16.8271 7.47674 17.0121 7.47674C17.1971 7.47674 17.3746 7.40324 17.5054 7.2724C17.6362 7.14156 17.7097 6.9641 17.7097 6.77907V4.68605H19.8024C19.9874 4.68605 20.1648 4.61254 20.2956 4.4817C20.4265 4.35086 20.4999 4.17341 20.4999 3.98837C20.4999 3.80334 20.4265 3.62588 20.2956 3.49504C20.1648 3.3642 19.9874 3.2907 19.8024 3.2907H17.7097V1.19767C17.7097 1.01264 17.6362 0.835183 17.5054 0.704344C17.3746 0.573505 17.1971 0.5 17.0121 0.5C16.8271 0.5 16.6497 0.573505 16.5189 0.704344C16.3881 0.835183 16.3146 1.01264 16.3146 1.19767V3.2907H14.2219C14.0369 3.2907 13.8595 3.3642 13.7287 3.49504C13.5978 3.62588 13.5243 3.80334 13.5243 3.98837C13.5243 4.17341 13.5978 4.35086 13.7287 4.4817C13.8595 4.61254 14.0369 4.68605 14.2219 4.68605Z" fill="white"/>
</svg>
