<svg width="20" height="21" viewBox="0 0 20 21" fill="none" xmlns="http://www.w3.org/2000/svg">
<g clip-path="url(#clip0_467_15729)">
<path d="M10 14.4988C12.3995 14.4988 14.3515 12.5466 14.3515 10.1472V4.85152C14.3515 2.45211 12.3995 0.5 10 0.5C7.60055 0.5 5.64848 2.45211 5.64848 4.85152V10.1471C5.64848 12.5467 7.60055 14.4988 10 14.4988ZM6.89848 4.85152C6.89848 3.14133 8.2898 1.75 10 1.75C11.7102 1.75 13.1015 3.14133 13.1015 4.85152V10.1471C13.1015 11.8573 11.7102 13.2487 10 13.2487C8.2898 13.2487 6.89848 11.8573 6.89848 10.1471V4.85152ZM17.1714 11.4053C16.8787 13.0683 16.002 14.592 14.7027 15.6957C13.5477 16.677 12.1189 17.2709 10.625 17.4011V19.25H14.6875C15.0327 19.25 15.3125 19.5298 15.3125 19.875C15.3125 20.2202 15.0327 20.5 14.6875 20.5H5.3125C4.9673 20.5 4.6875 20.2202 4.6875 19.875C4.6875 19.5298 4.9673 19.25 5.3125 19.25H9.375V17.4011C7.88105 17.2709 6.45238 16.677 5.2973 15.6957C3.99801 14.592 3.12129 13.0683 2.82859 11.4053C2.76879 11.0653 2.99582 10.7412 3.33578 10.6814C3.6757 10.6216 3.99984 10.8487 4.05965 11.1886C4.56852 14.0799 7.0668 16.1784 10 16.1784C12.9332 16.1784 15.4315 14.0799 15.9404 11.1886C16.0002 10.8486 16.3242 10.6215 16.6642 10.6814C17.0042 10.7412 17.2312 11.0653 17.1714 11.4053ZM17.1809 4.70969V8.32043C17.1809 8.66563 16.9011 8.94543 16.5559 8.94543C16.2107 8.94543 15.9309 8.66563 15.9309 8.32043V4.70969C15.9309 4.36449 16.2107 4.08469 16.5559 4.08469C16.9011 4.08469 17.1809 4.36449 17.1809 4.70969ZM20 5.56961V7.46039C20 7.80559 19.7202 8.08539 19.375 8.08539C19.0298 8.08539 18.75 7.80559 18.75 7.46039V5.56961C18.75 5.22441 19.0298 4.94461 19.375 4.94461C19.7202 4.94461 20 5.22441 20 5.56961ZM2.81914 8.32039V4.70965C2.81914 4.36445 3.09895 4.08465 3.44414 4.08465C3.78934 4.08465 4.06914 4.36445 4.06914 4.70965V8.32039C4.06914 8.66559 3.78934 8.94539 3.44414 8.94539C3.09895 8.94539 2.81914 8.66559 2.81914 8.32039ZM1.25 5.56961V7.46039C1.25 7.80559 0.970195 8.08539 0.625 8.08539C0.279805 8.08539 0 7.80559 0 7.46039V5.56961C0 5.22441 0.279805 4.94461 0.625 4.94461C0.970195 4.94461 1.25 5.22441 1.25 5.56961Z" fill="white"/>
</g>
<defs>
<clipPath id="clip0_467_15729">
<rect width="20" height="20" fill="white" transform="translate(0 0.5)"/>
</clipPath>
</defs>
</svg>
