<svg width="30" height="31" viewBox="0 0 30 31" fill="none" xmlns="http://www.w3.org/2000/svg">
<rect y="0.5" width="30" height="30" rx="15" fill="black"/>
<path fill-rule="evenodd" clip-rule="evenodd" d="M9.17951 22.7907C8.93014 22.7906 8.68489 22.7271 8.46678 22.6062C8.24867 22.4854 8.06485 22.311 7.93258 22.0996C7.80031 21.8882 7.72392 21.6467 7.7106 21.3977C7.69727 21.1487 7.74745 20.9004 7.8564 20.6761L13.4511 9.17645C13.5925 8.88609 13.8128 8.64135 14.0866 8.47013C14.3605 8.29892 14.6769 8.20813 14.9999 8.20813C15.3229 8.20813 15.6394 8.29892 15.9132 8.47013C16.1871 8.64135 16.4073 8.88609 16.5487 9.17645L22.1434 20.6761C22.2524 20.9004 22.3026 21.1488 22.2892 21.3979C22.2759 21.6469 22.1994 21.8885 22.0671 22.0999C21.9347 22.3113 21.7508 22.4856 21.5326 22.6065C21.3144 22.7273 21.0691 22.7907 20.8197 22.7907C20.6917 22.7907 20.5625 22.7993 20.4385 22.7615L16.1298 21.4357C16.0207 21.4022 15.9222 21.341 15.8437 21.2582C15.7652 21.1754 15.7094 21.0738 15.6817 20.9631L14.9996 18.232L14.3168 20.9631C14.2891 21.0738 14.2333 21.1754 14.1548 21.2582C14.0763 21.341 13.9778 21.4022 13.8687 21.4357L9.56 22.7615C9.43604 22.7993 9.30678 22.7907 9.17951 22.7907ZM9.03368 21.3191C9.03368 21.3382 9.03745 21.3572 9.04478 21.3749C9.05211 21.3926 9.06285 21.4086 9.07639 21.4222C9.08993 21.4357 9.10601 21.4465 9.1237 21.4538C9.1414 21.4611 9.16036 21.4649 9.17951 21.4649L9.26568 21.4649L13.1217 20.2783L14.3566 15.3379C14.3925 15.1946 14.4753 15.0674 14.5918 14.9765C14.7083 14.8855 14.8518 14.8362 14.9996 14.8362C15.1474 14.8362 15.2909 14.8855 15.4074 14.9765C15.5239 15.0674 15.6067 15.1946 15.6426 15.3379L16.8775 20.2783L20.7335 21.4649L20.8197 21.4649C20.8443 21.4649 20.8685 21.4586 20.89 21.4466C20.9116 21.4347 20.9297 21.4175 20.9429 21.3967C20.956 21.3758 20.9636 21.352 20.965 21.3274C20.9664 21.3028 20.9616 21.2783 20.9509 21.2561L15.3562 9.75646C15.3235 9.68972 15.2728 9.63349 15.2098 9.59416C15.1467 9.55483 15.0739 9.53397 14.9996 9.53397C14.9253 9.53397 14.8525 9.55483 14.7894 9.59416C14.7264 9.63349 14.6756 9.68972 14.643 9.75646L9.04826 21.2561C9.03865 21.2759 9.03367 21.297 9.03368 21.3191Z" fill="white"/>
</svg>
