<svg width="21" height="21" viewBox="0 0 21 21" fill="none" xmlns="http://www.w3.org/2000/svg">
<path d="M19.6667 16.3331H17.4475C17.0867 15.1323 15.9833 14.2498 14.6667 14.2498C13.35 14.2498 12.2475 15.1323 11.8859 16.3331H1.33332C0.87332 16.3331 0.5 16.7065 0.5 17.1665C0.5 17.6265 0.87332 17.9998 1.33332 17.9998H11.8858C12.2466 19.2006 13.35 20.0831 14.6666 20.0831C15.9833 20.0831 17.0858 19.2006 17.4475 17.9998H19.6666C20.1275 17.9998 20.5 17.6265 20.5 17.1665C20.5 16.7065 20.1275 16.3331 19.6667 16.3331ZM14.6667 18.4165C13.9775 18.4165 13.4167 17.8557 13.4167 17.1665C13.4167 16.4773 13.9775 15.9165 14.6667 15.9165C15.3559 15.9165 15.9167 16.4773 15.9167 17.1665C15.9167 17.8557 15.3558 18.4165 14.6667 18.4165ZM19.6667 2.99982H17.4475C17.0858 1.799 15.9833 0.916504 14.6667 0.916504C13.35 0.916504 12.2475 1.799 11.8858 2.99982H1.33332C0.87332 2.99982 0.5 3.37314 0.5 3.83314C0.5 4.29314 0.87332 4.66646 1.33332 4.66646H11.8858C12.2475 5.86732 13.35 6.74982 14.6667 6.74982C15.9834 6.74982 17.0859 5.86732 17.4475 4.6665H19.6667C20.1275 4.6665 20.5 4.29318 20.5 3.83318C20.5 3.37318 20.1275 2.99982 19.6667 2.99982ZM14.6667 5.08314C13.9775 5.08314 13.4167 4.52232 13.4167 3.83314C13.4167 3.14396 13.9775 2.58314 14.6667 2.58314C15.3559 2.58314 15.9167 3.14396 15.9167 3.83314C15.9167 4.52232 15.3558 5.08314 14.6667 5.08314ZM19.6667 9.6665H9.11418C8.7525 8.46568 7.65 7.58318 6.33336 7.58318C5.01672 7.58318 3.91418 8.46568 3.55254 9.6665H1.33332C0.87332 9.6665 0.5 10.0398 0.5 10.4998C0.5 10.9598 0.87332 11.3331 1.33332 11.3331H3.5525C3.91418 12.534 5.01668 13.4165 6.33332 13.4165C7.64996 13.4165 8.7525 12.534 9.11414 11.3331H19.6666C20.1275 11.3331 20.5 10.9598 20.5 10.4998C20.5 10.0398 20.1275 9.6665 19.6667 9.6665ZM6.33332 11.7498C5.64414 11.7498 5.08332 11.189 5.08332 10.4998C5.08332 9.81065 5.64414 9.24982 6.33332 9.24982C7.0225 9.24982 7.58332 9.81065 7.58332 10.4998C7.58332 11.189 7.0225 11.7498 6.33332 11.7498Z" fill="white"/>
</svg>
